<mxfile host="Electron" modified="2024-01-06T12:11:10.642Z" agent="Mozilla/5.0 (Windows NT 10.0; Win64; x64) AppleWebKit/537.36 (KHTML, like Gecko) draw.io/21.6.8 Chrome/114.0.5735.289 Electron/25.5.0 Safari/537.36" etag="rH9QJ28Y0jmrgia_6inE" version="21.6.8" type="device" pages="2">
  <diagram name="Pagina-1" id="ruED8KApXvsvsav0EOmQ">
    <mxGraphModel dx="2073" dy="1035" grid="1" gridSize="12" guides="1" tooltips="1" connect="1" arrows="0" fold="1" page="1" pageScale="1" pageWidth="1654" pageHeight="1169" math="0" shadow="0">
      <root>
        <mxCell id="0" />
        <mxCell id="1" parent="0" />
        <mxCell id="Hz8rqVoHaeQYQRgCHm7I-2" style="edgeStyle=orthogonalEdgeStyle;rounded=0;orthogonalLoop=1;jettySize=auto;html=1;endArrow=none;endFill=0;" parent="1" source="Hz8rqVoHaeQYQRgCHm7I-1" target="Hz8rqVoHaeQYQRgCHm7I-3" edge="1">
          <mxGeometry relative="1" as="geometry">
            <mxPoint x="630" y="503" as="targetPoint" />
          </mxGeometry>
        </mxCell>
        <mxCell id="CA8DIJyEQ-BG8HpjzGWb-2" style="edgeStyle=orthogonalEdgeStyle;rounded=0;orthogonalLoop=1;jettySize=auto;html=1;exitX=0.25;exitY=1;exitDx=0;exitDy=0;endArrow=none;endFill=0;" parent="1" source="Hz8rqVoHaeQYQRgCHm7I-1" target="CA8DIJyEQ-BG8HpjzGWb-3" edge="1">
          <mxGeometry relative="1" as="geometry">
            <mxPoint x="360" y="603" as="targetPoint" />
          </mxGeometry>
        </mxCell>
        <mxCell id="CA8DIJyEQ-BG8HpjzGWb-11" style="edgeStyle=orthogonalEdgeStyle;rounded=0;orthogonalLoop=1;jettySize=auto;html=1;endArrow=none;endFill=0;exitX=0.581;exitY=0.037;exitDx=0;exitDy=0;exitPerimeter=0;" parent="1" source="Hz8rqVoHaeQYQRgCHm7I-1" target="CA8DIJyEQ-BG8HpjzGWb-12" edge="1">
          <mxGeometry relative="1" as="geometry">
            <mxPoint x="482.5" y="413" as="targetPoint" />
          </mxGeometry>
        </mxCell>
        <mxCell id="CA8DIJyEQ-BG8HpjzGWb-32" value="" style="edgeStyle=orthogonalEdgeStyle;rounded=0;orthogonalLoop=1;jettySize=auto;html=1;endArrow=none;endFill=0;" parent="1" source="Hz8rqVoHaeQYQRgCHm7I-1" target="Hz8rqVoHaeQYQRgCHm7I-3" edge="1">
          <mxGeometry relative="1" as="geometry" />
        </mxCell>
        <mxCell id="CA8DIJyEQ-BG8HpjzGWb-40" style="edgeStyle=orthogonalEdgeStyle;rounded=0;orthogonalLoop=1;jettySize=auto;html=1;exitX=1;exitY=0.25;exitDx=0;exitDy=0;entryX=0;entryY=0.5;entryDx=0;entryDy=0;endArrow=none;endFill=0;" parent="1" source="Hz8rqVoHaeQYQRgCHm7I-1" target="CA8DIJyEQ-BG8HpjzGWb-42" edge="1">
          <mxGeometry relative="1" as="geometry">
            <mxPoint x="670" y="383" as="targetPoint" />
            <Array as="points">
              <mxPoint x="536" y="483" />
              <mxPoint x="611" y="483" />
              <mxPoint x="611" y="433" />
              <mxPoint x="690" y="433" />
            </Array>
          </mxGeometry>
        </mxCell>
        <mxCell id="X5VYXHr65bgpFRcitx1M-48" style="edgeStyle=orthogonalEdgeStyle;rounded=0;orthogonalLoop=1;jettySize=auto;html=1;endArrow=oval;endFill=0;entryX=1;entryY=0.078;entryDx=0;entryDy=0;entryPerimeter=0;" parent="1" target="X5VYXHr65bgpFRcitx1M-51" edge="1">
          <mxGeometry relative="1" as="geometry">
            <mxPoint x="391.25" y="491" as="targetPoint" />
            <mxPoint x="431.25" y="491.5" as="sourcePoint" />
            <Array as="points">
              <mxPoint x="431" y="493" />
              <mxPoint x="391" y="493" />
            </Array>
          </mxGeometry>
        </mxCell>
        <mxCell id="X5VYXHr65bgpFRcitx1M-50" style="edgeStyle=orthogonalEdgeStyle;rounded=0;orthogonalLoop=1;jettySize=auto;html=1;endArrow=oval;endFill=0;exitX=0.001;exitY=0.583;exitDx=0;exitDy=0;exitPerimeter=0;" parent="1" source="Hz8rqVoHaeQYQRgCHm7I-1" target="X5VYXHr65bgpFRcitx1M-51" edge="1">
          <mxGeometry relative="1" as="geometry">
            <mxPoint x="400" y="513" as="targetPoint" />
            <Array as="points">
              <mxPoint x="431" y="503" />
            </Array>
          </mxGeometry>
        </mxCell>
        <mxCell id="X5VYXHr65bgpFRcitx1M-60" style="edgeStyle=orthogonalEdgeStyle;rounded=0;orthogonalLoop=1;jettySize=auto;html=1;exitX=-0.008;exitY=0.075;exitDx=0;exitDy=0;exitPerimeter=0;endArrow=oval;endFill=1;" parent="1" source="Hz8rqVoHaeQYQRgCHm7I-1" target="X5VYXHr65bgpFRcitx1M-58" edge="1">
          <mxGeometry relative="1" as="geometry" />
        </mxCell>
        <mxCell id="X5VYXHr65bgpFRcitx1M-69" style="edgeStyle=orthogonalEdgeStyle;rounded=0;orthogonalLoop=1;jettySize=auto;html=1;exitX=0;exitY=1;exitDx=0;exitDy=0;endArrow=oval;endFill=0;" parent="1" source="Hz8rqVoHaeQYQRgCHm7I-1" edge="1">
          <mxGeometry relative="1" as="geometry">
            <mxPoint x="396" y="531" as="targetPoint" />
          </mxGeometry>
        </mxCell>
        <mxCell id="nLwUZ7-GpoZsQczw0JLD-102" style="edgeStyle=orthogonalEdgeStyle;rounded=0;orthogonalLoop=1;jettySize=auto;html=1;exitX=0.25;exitY=0;exitDx=0;exitDy=0;endArrow=none;endFill=0;" parent="1" source="Hz8rqVoHaeQYQRgCHm7I-1" edge="1">
          <mxGeometry relative="1" as="geometry">
            <mxPoint x="334" y="409" as="targetPoint" />
            <Array as="points">
              <mxPoint x="456" y="471" />
              <mxPoint x="456" y="409" />
            </Array>
          </mxGeometry>
        </mxCell>
        <mxCell id="h4UumLnZZLnhPc9n6Zi0-1" style="edgeStyle=orthogonalEdgeStyle;rounded=0;orthogonalLoop=1;jettySize=auto;html=1;exitX=0.844;exitY=-0.007;exitDx=0;exitDy=0;exitPerimeter=0;endArrow=none;endFill=0;" parent="1" source="Hz8rqVoHaeQYQRgCHm7I-1" edge="1">
          <mxGeometry relative="1" as="geometry">
            <mxPoint x="600" y="300" as="targetPoint" />
            <Array as="points">
              <mxPoint x="540" y="471" />
              <mxPoint x="540" y="392" />
              <mxPoint x="564" y="392" />
            </Array>
          </mxGeometry>
        </mxCell>
        <mxCell id="2fYasUAqJMg8RgUxBZTh-1" style="edgeStyle=orthogonalEdgeStyle;rounded=0;orthogonalLoop=1;jettySize=auto;html=1;exitX=-0.002;exitY=0.867;exitDx=0;exitDy=0;exitPerimeter=0;endArrow=oval;endFill=0;entryX=0.998;entryY=0.449;entryDx=0;entryDy=0;entryPerimeter=0;" parent="1" source="Hz8rqVoHaeQYQRgCHm7I-1" target="2fYasUAqJMg8RgUxBZTh-4" edge="1">
          <mxGeometry relative="1" as="geometry">
            <mxPoint x="384" y="528" as="targetPoint" />
            <Array as="points">
              <mxPoint x="431" y="521" />
              <mxPoint x="411" y="521" />
            </Array>
          </mxGeometry>
        </mxCell>
        <mxCell id="Hz8rqVoHaeQYQRgCHm7I-1" value="&lt;font style=&quot;font-size: 12px;&quot;&gt;Film&lt;/font&gt;" style="rounded=0;whiteSpace=wrap;html=1;fillColor=#fff2cc;strokeColor=#d6b656;" parent="1" vertex="1">
          <mxGeometry x="431.25" y="471" width="105" height="60" as="geometry" />
        </mxCell>
        <mxCell id="Hz8rqVoHaeQYQRgCHm7I-4" style="edgeStyle=orthogonalEdgeStyle;rounded=0;orthogonalLoop=1;jettySize=auto;html=1;endArrow=none;endFill=0;" parent="1" source="Hz8rqVoHaeQYQRgCHm7I-3" target="Hz8rqVoHaeQYQRgCHm7I-5" edge="1">
          <mxGeometry relative="1" as="geometry">
            <mxPoint x="830" y="503" as="targetPoint" />
          </mxGeometry>
        </mxCell>
        <mxCell id="Hz8rqVoHaeQYQRgCHm7I-3" value="Partecipazione" style="rhombus;whiteSpace=wrap;html=1;fillColor=#fff2cc;strokeColor=#d6b656;" parent="1" vertex="1">
          <mxGeometry x="621.75" y="475.75" width="90" height="38.5" as="geometry" />
        </mxCell>
        <mxCell id="Hz8rqVoHaeQYQRgCHm7I-69" style="edgeStyle=orthogonalEdgeStyle;rounded=0;orthogonalLoop=1;jettySize=auto;html=1;endArrow=none;endFill=0;" parent="1" source="Hz8rqVoHaeQYQRgCHm7I-5" target="Hz8rqVoHaeQYQRgCHm7I-70" edge="1">
          <mxGeometry relative="1" as="geometry">
            <mxPoint x="960" y="693" as="targetPoint" />
          </mxGeometry>
        </mxCell>
        <mxCell id="X5VYXHr65bgpFRcitx1M-84" style="edgeStyle=orthogonalEdgeStyle;rounded=0;orthogonalLoop=1;jettySize=auto;html=1;endArrow=oval;endFill=1;" parent="1" source="Hz8rqVoHaeQYQRgCHm7I-5" edge="1">
          <mxGeometry relative="1" as="geometry">
            <mxPoint x="815" y="463" as="targetPoint" />
          </mxGeometry>
        </mxCell>
        <mxCell id="X5VYXHr65bgpFRcitx1M-86" style="edgeStyle=orthogonalEdgeStyle;rounded=0;orthogonalLoop=1;jettySize=auto;html=1;endArrow=oval;endFill=0;exitX=1;exitY=0.25;exitDx=0;exitDy=0;" parent="1" source="Hz8rqVoHaeQYQRgCHm7I-5" edge="1">
          <mxGeometry relative="1" as="geometry">
            <mxPoint x="890" y="493" as="targetPoint" />
          </mxGeometry>
        </mxCell>
        <mxCell id="X5VYXHr65bgpFRcitx1M-88" style="edgeStyle=orthogonalEdgeStyle;rounded=0;orthogonalLoop=1;jettySize=auto;html=1;endArrow=oval;endFill=0;" parent="1" source="Hz8rqVoHaeQYQRgCHm7I-5" edge="1">
          <mxGeometry relative="1" as="geometry">
            <mxPoint x="890" y="513" as="targetPoint" />
            <Array as="points">
              <mxPoint x="890" y="513" />
              <mxPoint x="890" y="513" />
            </Array>
          </mxGeometry>
        </mxCell>
        <mxCell id="Hz8rqVoHaeQYQRgCHm7I-5" value="Attori" style="rounded=0;whiteSpace=wrap;html=1;fillColor=#fff2cc;strokeColor=#d6b656;" parent="1" vertex="1">
          <mxGeometry x="770" y="483" width="90" height="40" as="geometry" />
        </mxCell>
        <mxCell id="X5VYXHr65bgpFRcitx1M-78" style="edgeStyle=orthogonalEdgeStyle;rounded=0;orthogonalLoop=1;jettySize=auto;html=1;endArrow=oval;endFill=1;" parent="1" source="Hz8rqVoHaeQYQRgCHm7I-8" edge="1">
          <mxGeometry relative="1" as="geometry">
            <mxPoint x="450" y="979" as="targetPoint" />
            <Array as="points">
              <mxPoint x="450" y="969" />
              <mxPoint x="450" y="969" />
            </Array>
          </mxGeometry>
        </mxCell>
        <mxCell id="X5VYXHr65bgpFRcitx1M-80" style="edgeStyle=orthogonalEdgeStyle;rounded=0;orthogonalLoop=1;jettySize=auto;html=1;endArrow=oval;endFill=0;" parent="1" source="Hz8rqVoHaeQYQRgCHm7I-8" edge="1">
          <mxGeometry relative="1" as="geometry">
            <mxPoint x="510" y="979" as="targetPoint" />
            <Array as="points">
              <mxPoint x="510" y="979" />
              <mxPoint x="510" y="979" />
            </Array>
          </mxGeometry>
        </mxCell>
        <mxCell id="Hz8rqVoHaeQYQRgCHm7I-8" value="Premio" style="rounded=0;whiteSpace=wrap;html=1;fillColor=#fff2cc;strokeColor=#d6b656;" parent="1" vertex="1">
          <mxGeometry x="437.5" y="909" width="90" height="40" as="geometry" />
        </mxCell>
        <mxCell id="CA8DIJyEQ-BG8HpjzGWb-9" style="edgeStyle=orthogonalEdgeStyle;rounded=0;orthogonalLoop=1;jettySize=auto;html=1;entryX=0.5;entryY=1;entryDx=0;entryDy=0;endArrow=none;endFill=0;" parent="1" source="Hz8rqVoHaeQYQRgCHm7I-55" target="Hz8rqVoHaeQYQRgCHm7I-1" edge="1">
          <mxGeometry relative="1" as="geometry">
            <mxPoint x="480" y="513" as="targetPoint" />
          </mxGeometry>
        </mxCell>
        <mxCell id="La2jYohBh1R5JBpSJuED-4" style="edgeStyle=orthogonalEdgeStyle;rounded=0;orthogonalLoop=1;jettySize=auto;html=1;endArrow=none;endFill=0;" parent="1" source="Hz8rqVoHaeQYQRgCHm7I-55" target="La2jYohBh1R5JBpSJuED-1" edge="1">
          <mxGeometry relative="1" as="geometry" />
        </mxCell>
        <mxCell id="Hz8rqVoHaeQYQRgCHm7I-55" value="Premiazione Film" style="rhombus;whiteSpace=wrap;html=1;fillColor=#fff2cc;strokeColor=#d6b656;" parent="1" vertex="1">
          <mxGeometry x="441.25" y="593" width="82.5" height="60" as="geometry" />
        </mxCell>
        <mxCell id="La2jYohBh1R5JBpSJuED-2" style="edgeStyle=orthogonalEdgeStyle;rounded=0;orthogonalLoop=1;jettySize=auto;html=1;endArrow=none;endFill=0;" parent="1" source="Hz8rqVoHaeQYQRgCHm7I-70" target="La2jYohBh1R5JBpSJuED-1" edge="1">
          <mxGeometry relative="1" as="geometry" />
        </mxCell>
        <mxCell id="Hz8rqVoHaeQYQRgCHm7I-70" value="Premiazione Attore" style="rhombus;whiteSpace=wrap;html=1;fillColor=#fff2cc;strokeColor=#d6b656;" parent="1" vertex="1">
          <mxGeometry x="775" y="713" width="80" height="60" as="geometry" />
        </mxCell>
        <mxCell id="CA8DIJyEQ-BG8HpjzGWb-4" style="edgeStyle=orthogonalEdgeStyle;rounded=0;orthogonalLoop=1;jettySize=auto;html=1;endArrow=none;endFill=0;" parent="1" source="CA8DIJyEQ-BG8HpjzGWb-3" target="CA8DIJyEQ-BG8HpjzGWb-5" edge="1">
          <mxGeometry relative="1" as="geometry">
            <mxPoint x="360" y="703" as="targetPoint" />
          </mxGeometry>
        </mxCell>
        <mxCell id="CA8DIJyEQ-BG8HpjzGWb-3" value="Direzione" style="rhombus;whiteSpace=wrap;html=1;fillColor=#fff2cc;strokeColor=#d6b656;" parent="1" vertex="1">
          <mxGeometry x="320" y="593" width="80" height="60" as="geometry" />
        </mxCell>
        <mxCell id="CA8DIJyEQ-BG8HpjzGWb-6" style="edgeStyle=orthogonalEdgeStyle;rounded=0;orthogonalLoop=1;jettySize=auto;html=1;endArrow=none;endFill=0;" parent="1" source="CA8DIJyEQ-BG8HpjzGWb-5" target="CA8DIJyEQ-BG8HpjzGWb-7" edge="1">
          <mxGeometry relative="1" as="geometry">
            <mxPoint x="360" y="743" as="targetPoint" />
          </mxGeometry>
        </mxCell>
        <mxCell id="X5VYXHr65bgpFRcitx1M-82" style="edgeStyle=orthogonalEdgeStyle;rounded=0;orthogonalLoop=1;jettySize=auto;html=1;endArrow=oval;endFill=1;" parent="1" source="CA8DIJyEQ-BG8HpjzGWb-5" edge="1">
          <mxGeometry relative="1" as="geometry">
            <mxPoint x="255" y="783" as="targetPoint" />
          </mxGeometry>
        </mxCell>
        <mxCell id="X5VYXHr65bgpFRcitx1M-91" style="edgeStyle=orthogonalEdgeStyle;rounded=0;orthogonalLoop=1;jettySize=auto;html=1;endArrow=oval;endFill=0;exitX=0;exitY=0.75;exitDx=0;exitDy=0;" parent="1" source="CA8DIJyEQ-BG8HpjzGWb-5" edge="1">
          <mxGeometry relative="1" as="geometry">
            <mxPoint x="190" y="753" as="targetPoint" />
            <Array as="points" />
          </mxGeometry>
        </mxCell>
        <mxCell id="X5VYXHr65bgpFRcitx1M-92" style="edgeStyle=orthogonalEdgeStyle;rounded=0;orthogonalLoop=1;jettySize=auto;html=1;exitX=0;exitY=0.25;exitDx=0;exitDy=0;endArrow=oval;endFill=0;" parent="1" source="CA8DIJyEQ-BG8HpjzGWb-5" edge="1">
          <mxGeometry relative="1" as="geometry">
            <mxPoint x="190" y="733" as="targetPoint" />
            <Array as="points">
              <mxPoint x="190" y="733" />
              <mxPoint x="190" y="733" />
            </Array>
          </mxGeometry>
        </mxCell>
        <mxCell id="CA8DIJyEQ-BG8HpjzGWb-5" value="Regista" style="rounded=0;whiteSpace=wrap;html=1;fillColor=#fff2cc;strokeColor=#d6b656;" parent="1" vertex="1">
          <mxGeometry x="210" y="723" width="90" height="40" as="geometry" />
        </mxCell>
        <mxCell id="La2jYohBh1R5JBpSJuED-3" style="edgeStyle=orthogonalEdgeStyle;rounded=0;orthogonalLoop=1;jettySize=auto;html=1;entryX=0;entryY=0.5;entryDx=0;entryDy=0;endArrow=none;endFill=0;" parent="1" source="CA8DIJyEQ-BG8HpjzGWb-7" target="La2jYohBh1R5JBpSJuED-1" edge="1">
          <mxGeometry relative="1" as="geometry" />
        </mxCell>
        <mxCell id="CA8DIJyEQ-BG8HpjzGWb-7" value="Premiazione Regista" style="rhombus;whiteSpace=wrap;html=1;fillColor=#fff2cc;strokeColor=#d6b656;" parent="1" vertex="1">
          <mxGeometry x="320" y="708" width="90" height="70" as="geometry" />
        </mxCell>
        <mxCell id="CA8DIJyEQ-BG8HpjzGWb-13" style="edgeStyle=orthogonalEdgeStyle;rounded=0;orthogonalLoop=1;jettySize=auto;html=1;endArrow=none;endFill=0;" parent="1" source="CA8DIJyEQ-BG8HpjzGWb-12" target="CA8DIJyEQ-BG8HpjzGWb-14" edge="1">
          <mxGeometry relative="1" as="geometry">
            <mxPoint x="483.75" y="303" as="targetPoint" />
          </mxGeometry>
        </mxCell>
        <mxCell id="CA8DIJyEQ-BG8HpjzGWb-12" value="Codifica" style="rhombus;whiteSpace=wrap;html=1;fillColor=#d5e8d4;strokeColor=#82b366;" parent="1" vertex="1">
          <mxGeometry x="448.44" y="350.75" width="87.5" height="60" as="geometry" />
        </mxCell>
        <mxCell id="nLwUZ7-GpoZsQczw0JLD-43" style="edgeStyle=orthogonalEdgeStyle;rounded=0;orthogonalLoop=1;jettySize=auto;html=1;endArrow=oval;endFill=1;exitX=0.413;exitY=-0.018;exitDx=0;exitDy=0;exitPerimeter=0;entryX=0.538;entryY=1.056;entryDx=0;entryDy=0;entryPerimeter=0;" parent="1" source="CA8DIJyEQ-BG8HpjzGWb-14" target="nLwUZ7-GpoZsQczw0JLD-44" edge="1">
          <mxGeometry relative="1" as="geometry">
            <mxPoint x="492.1900000000005" y="123" as="targetPoint" />
          </mxGeometry>
        </mxCell>
        <mxCell id="nLwUZ7-GpoZsQczw0JLD-45" style="edgeStyle=orthogonalEdgeStyle;rounded=0;orthogonalLoop=1;jettySize=auto;html=1;exitX=0.667;exitY=0.034;exitDx=0;exitDy=0;exitPerimeter=0;endArrow=oval;endFill=0;entryX=0.357;entryY=0.986;entryDx=0;entryDy=0;entryPerimeter=0;" parent="1" source="CA8DIJyEQ-BG8HpjzGWb-14" target="nLwUZ7-GpoZsQczw0JLD-46" edge="1">
          <mxGeometry relative="1" as="geometry">
            <mxPoint x="538" y="123" as="targetPoint" />
          </mxGeometry>
        </mxCell>
        <mxCell id="nLwUZ7-GpoZsQczw0JLD-47" style="edgeStyle=orthogonalEdgeStyle;rounded=0;orthogonalLoop=1;jettySize=auto;html=1;exitX=0.806;exitY=1.014;exitDx=0;exitDy=0;exitPerimeter=0;endArrow=oval;endFill=0;" parent="1" source="CA8DIJyEQ-BG8HpjzGWb-14" edge="1">
          <mxGeometry relative="1" as="geometry">
            <mxPoint x="537" y="252" as="targetPoint" />
          </mxGeometry>
        </mxCell>
        <mxCell id="nLwUZ7-GpoZsQczw0JLD-50" style="edgeStyle=orthogonalEdgeStyle;rounded=0;orthogonalLoop=1;jettySize=auto;html=1;endArrow=none;endFill=0;" parent="1" source="CA8DIJyEQ-BG8HpjzGWb-14" target="nLwUZ7-GpoZsQczw0JLD-51" edge="1">
          <mxGeometry relative="1" as="geometry">
            <mxPoint x="622" y="171.00000000000006" as="targetPoint" />
            <Array as="points">
              <mxPoint x="600" y="171" />
              <mxPoint x="600" y="165" />
            </Array>
          </mxGeometry>
        </mxCell>
        <mxCell id="nLwUZ7-GpoZsQczw0JLD-52" style="edgeStyle=orthogonalEdgeStyle;rounded=0;orthogonalLoop=1;jettySize=auto;html=1;endArrow=none;endFill=0;" parent="1" source="CA8DIJyEQ-BG8HpjzGWb-14" edge="1">
          <mxGeometry relative="1" as="geometry">
            <mxPoint x="634" y="219" as="targetPoint" />
          </mxGeometry>
        </mxCell>
        <mxCell id="nLwUZ7-GpoZsQczw0JLD-135" style="edgeStyle=orthogonalEdgeStyle;rounded=0;orthogonalLoop=1;jettySize=auto;html=1;exitX=0.893;exitY=0;exitDx=0;exitDy=0;exitPerimeter=0;endArrow=none;endFill=0;" parent="1" source="CA8DIJyEQ-BG8HpjzGWb-14" edge="1">
          <mxGeometry relative="1" as="geometry">
            <mxPoint x="898" y="111" as="targetPoint" />
            <Array as="points">
              <mxPoint x="562" y="160" />
              <mxPoint x="562" y="111" />
            </Array>
          </mxGeometry>
        </mxCell>
        <mxCell id="CA8DIJyEQ-BG8HpjzGWb-14" value="Film Codificato" style="rounded=0;whiteSpace=wrap;html=1;fillColor=#d5e8d4;strokeColor=#82b366;" parent="1" vertex="1">
          <mxGeometry x="420" y="160" width="144.38" height="63.75" as="geometry" />
        </mxCell>
        <mxCell id="nLwUZ7-GpoZsQczw0JLD-4" style="edgeStyle=orthogonalEdgeStyle;rounded=0;orthogonalLoop=1;jettySize=auto;html=1;endArrow=none;endFill=0;" parent="1" source="CA8DIJyEQ-BG8HpjzGWb-15" edge="1">
          <mxGeometry relative="1" as="geometry">
            <mxPoint x="298" y="219.5" as="targetPoint" />
          </mxGeometry>
        </mxCell>
        <mxCell id="nLwUZ7-GpoZsQczw0JLD-26" style="edgeStyle=orthogonalEdgeStyle;rounded=0;orthogonalLoop=1;jettySize=auto;html=1;exitX=-0.01;exitY=0.088;exitDx=0;exitDy=0;exitPerimeter=0;entryX=1.02;entryY=0.598;entryDx=0;entryDy=0;entryPerimeter=0;endArrow=oval;endFill=1;" parent="1" source="CA8DIJyEQ-BG8HpjzGWb-15" target="nLwUZ7-GpoZsQczw0JLD-27" edge="1">
          <mxGeometry relative="1" as="geometry">
            <mxPoint x="94" y="189" as="targetPoint" />
          </mxGeometry>
        </mxCell>
        <mxCell id="nLwUZ7-GpoZsQczw0JLD-40" style="edgeStyle=orthogonalEdgeStyle;rounded=0;orthogonalLoop=1;jettySize=auto;html=1;exitX=0.987;exitY=0.827;exitDx=0;exitDy=0;exitPerimeter=0;endArrow=oval;endFill=0;" parent="1" source="CA8DIJyEQ-BG8HpjzGWb-15" edge="1">
          <mxGeometry relative="1" as="geometry">
            <mxPoint x="250" y="243" as="targetPoint" />
          </mxGeometry>
        </mxCell>
        <mxCell id="CA8DIJyEQ-BG8HpjzGWb-15" value="Formato Audio" style="rounded=0;whiteSpace=wrap;html=1;fillColor=#d5e8d4;strokeColor=#82b366;" parent="1" vertex="1">
          <mxGeometry x="113.12" y="183" width="110" height="73" as="geometry" />
        </mxCell>
        <mxCell id="nLwUZ7-GpoZsQczw0JLD-1" style="edgeStyle=orthogonalEdgeStyle;rounded=0;orthogonalLoop=1;jettySize=auto;html=1;endArrow=none;endFill=0;" parent="1" source="CA8DIJyEQ-BG8HpjzGWb-22" edge="1">
          <mxGeometry relative="1" as="geometry">
            <mxPoint x="310" y="123" as="targetPoint" />
          </mxGeometry>
        </mxCell>
        <mxCell id="nLwUZ7-GpoZsQczw0JLD-13" value="" style="edgeStyle=orthogonalEdgeStyle;rounded=0;orthogonalLoop=1;jettySize=auto;html=1;exitX=-0.004;exitY=0.161;exitDx=0;exitDy=0;exitPerimeter=0;endArrow=oval;endFill=1;" parent="1" source="CA8DIJyEQ-BG8HpjzGWb-22" target="nLwUZ7-GpoZsQczw0JLD-12" edge="1">
          <mxGeometry relative="1" as="geometry">
            <mxPoint x="106" y="99" as="sourcePoint" />
            <Array as="points">
              <mxPoint x="106" y="99" />
              <mxPoint x="106" y="99" />
            </Array>
          </mxGeometry>
        </mxCell>
        <mxCell id="nLwUZ7-GpoZsQczw0JLD-14" style="edgeStyle=orthogonalEdgeStyle;rounded=0;orthogonalLoop=1;jettySize=auto;html=1;entryX=0.973;entryY=0.488;entryDx=0;entryDy=0;entryPerimeter=0;exitX=-0.007;exitY=0.561;exitDx=0;exitDy=0;exitPerimeter=0;endArrow=oval;endFill=0;" parent="1" source="CA8DIJyEQ-BG8HpjzGWb-22" target="nLwUZ7-GpoZsQczw0JLD-16" edge="1">
          <mxGeometry relative="1" as="geometry">
            <mxPoint x="94" y="123" as="targetPoint" />
            <Array as="points">
              <mxPoint x="112" y="126" />
              <mxPoint x="94" y="126" />
            </Array>
          </mxGeometry>
        </mxCell>
        <mxCell id="nLwUZ7-GpoZsQczw0JLD-17" style="edgeStyle=orthogonalEdgeStyle;rounded=0;orthogonalLoop=1;jettySize=auto;html=1;entryX=1.044;entryY=0.504;entryDx=0;entryDy=0;entryPerimeter=0;exitX=-0.017;exitY=0.394;exitDx=0;exitDy=0;exitPerimeter=0;endArrow=oval;endFill=0;" parent="1" source="CA8DIJyEQ-BG8HpjzGWb-22" edge="1">
          <mxGeometry relative="1" as="geometry">
            <mxPoint x="89.69599999999991" y="115.096" as="targetPoint" />
            <Array as="points">
              <mxPoint x="107" y="115" />
            </Array>
          </mxGeometry>
        </mxCell>
        <mxCell id="nLwUZ7-GpoZsQczw0JLD-21" style="edgeStyle=orthogonalEdgeStyle;rounded=0;orthogonalLoop=1;jettySize=auto;html=1;exitX=0.997;exitY=0.822;exitDx=0;exitDy=0;exitPerimeter=0;endArrow=oval;endFill=0;" parent="1" source="CA8DIJyEQ-BG8HpjzGWb-22" edge="1">
          <mxGeometry relative="1" as="geometry">
            <mxPoint x="250" y="147" as="targetPoint" />
          </mxGeometry>
        </mxCell>
        <mxCell id="1RV6FaYA8MGQ1uC4E3W5-2" style="edgeStyle=orthogonalEdgeStyle;rounded=0;orthogonalLoop=1;jettySize=auto;html=1;endArrow=oval;endFill=0;" parent="1" source="CA8DIJyEQ-BG8HpjzGWb-22" edge="1">
          <mxGeometry relative="1" as="geometry">
            <mxPoint x="168.1199999999999" y="67" as="targetPoint" />
          </mxGeometry>
        </mxCell>
        <mxCell id="a854-WspByhzPtaYvcBd-5" style="edgeStyle=orthogonalEdgeStyle;rounded=0;orthogonalLoop=1;jettySize=auto;html=1;exitX=-0.001;exitY=0.792;exitDx=0;exitDy=0;exitPerimeter=0;endArrow=oval;endFill=0;" parent="1" source="CA8DIJyEQ-BG8HpjzGWb-22" edge="1">
          <mxGeometry relative="1" as="geometry">
            <mxPoint x="84" y="144" as="targetPoint" />
          </mxGeometry>
        </mxCell>
        <mxCell id="CA8DIJyEQ-BG8HpjzGWb-22" value="Formato Video" style="rounded=0;whiteSpace=wrap;html=1;fillColor=#d5e8d4;strokeColor=#82b366;" parent="1" vertex="1">
          <mxGeometry x="113.12" y="87" width="110" height="72" as="geometry" />
        </mxCell>
        <mxCell id="CA8DIJyEQ-BG8HpjzGWb-48" style="edgeStyle=orthogonalEdgeStyle;rounded=0;orthogonalLoop=1;jettySize=auto;html=1;endArrow=none;endFill=0;" parent="1" source="CA8DIJyEQ-BG8HpjzGWb-37" target="CA8DIJyEQ-BG8HpjzGWb-49" edge="1">
          <mxGeometry relative="1" as="geometry">
            <mxPoint x="1160" y="398" as="targetPoint" />
          </mxGeometry>
        </mxCell>
        <mxCell id="X5VYXHr65bgpFRcitx1M-98" style="edgeStyle=orthogonalEdgeStyle;rounded=0;orthogonalLoop=1;jettySize=auto;html=1;exitX=0.658;exitY=0.013;exitDx=0;exitDy=0;exitPerimeter=0;endArrow=oval;endFill=1;" parent="1" source="CA8DIJyEQ-BG8HpjzGWb-37" edge="1">
          <mxGeometry relative="1" as="geometry">
            <mxPoint x="1060" y="323" as="targetPoint" />
            <Array as="points">
              <mxPoint x="1060" y="354" />
              <mxPoint x="1060" y="323" />
            </Array>
          </mxGeometry>
        </mxCell>
        <mxCell id="TzTqIZtNaXJvueZtooWY-65" style="edgeStyle=orthogonalEdgeStyle;rounded=0;orthogonalLoop=1;jettySize=auto;html=1;entryX=0.5;entryY=0;entryDx=0;entryDy=0;endArrow=none;endFill=0;" parent="1" source="CA8DIJyEQ-BG8HpjzGWb-51" target="CA8DIJyEQ-BG8HpjzGWb-57" edge="1">
          <mxGeometry relative="1" as="geometry">
            <mxPoint x="1280" y="533" as="targetPoint" />
          </mxGeometry>
        </mxCell>
        <mxCell id="nLwUZ7-GpoZsQczw0JLD-162" style="edgeStyle=orthogonalEdgeStyle;rounded=0;orthogonalLoop=1;jettySize=auto;html=1;" parent="1" source="CA8DIJyEQ-BG8HpjzGWb-37" edge="1">
          <mxGeometry relative="1" as="geometry">
            <mxPoint x="862" y="349" as="targetPoint" />
          </mxGeometry>
        </mxCell>
        <mxCell id="CHpEICkRL-nOFaAy0Jc8-3" style="edgeStyle=orthogonalEdgeStyle;rounded=0;orthogonalLoop=1;jettySize=auto;html=1;endArrow=oval;endFill=0;exitX=0;exitY=0;exitDx=0;exitDy=0;" parent="1" source="CA8DIJyEQ-BG8HpjzGWb-37" edge="1">
          <mxGeometry relative="1" as="geometry">
            <mxPoint x="984" y="353" as="sourcePoint" />
            <mxPoint x="972" y="329" as="targetPoint" />
          </mxGeometry>
        </mxCell>
        <mxCell id="CHpEICkRL-nOFaAy0Jc8-6" style="edgeStyle=orthogonalEdgeStyle;rounded=0;orthogonalLoop=1;jettySize=auto;html=1;entryX=0.526;entryY=0.069;entryDx=0;entryDy=0;entryPerimeter=0;exitX=0.111;exitY=1.009;exitDx=0;exitDy=0;exitPerimeter=0;endArrow=oval;endFill=0;" parent="1" source="CA8DIJyEQ-BG8HpjzGWb-37" target="X5VYXHr65bgpFRcitx1M-107" edge="1">
          <mxGeometry relative="1" as="geometry" />
        </mxCell>
        <mxCell id="bv49dqIHhwxNIkvWS3FY-11" style="edgeStyle=orthogonalEdgeStyle;rounded=0;orthogonalLoop=1;jettySize=auto;html=1;exitX=0.287;exitY=0.044;exitDx=0;exitDy=0;exitPerimeter=0;endArrow=none;endFill=0;" parent="1" source="CA8DIJyEQ-BG8HpjzGWb-37" edge="1">
          <mxGeometry relative="1" as="geometry">
            <mxPoint x="1010" y="300" as="targetPoint" />
          </mxGeometry>
        </mxCell>
        <mxCell id="CA8DIJyEQ-BG8HpjzGWb-37" value="Utente" style="rounded=0;whiteSpace=wrap;html=1;fillColor=#f8cecc;strokeColor=#b85450;" parent="1" vertex="1">
          <mxGeometry x="970" y="354" width="140" height="65" as="geometry" />
        </mxCell>
        <mxCell id="CA8DIJyEQ-BG8HpjzGWb-43" style="edgeStyle=orthogonalEdgeStyle;rounded=0;orthogonalLoop=1;jettySize=auto;html=1;endArrow=none;endFill=0;entryX=0;entryY=0.75;entryDx=0;entryDy=0;" parent="1" source="CA8DIJyEQ-BG8HpjzGWb-42" target="CA8DIJyEQ-BG8HpjzGWb-37" edge="1">
          <mxGeometry relative="1" as="geometry" />
        </mxCell>
        <mxCell id="Thu5VVuTW2hiQ9AMxA9K-6" style="edgeStyle=orthogonalEdgeStyle;rounded=0;orthogonalLoop=1;jettySize=auto;html=1;exitX=0.454;exitY=0.049;exitDx=0;exitDy=0;exitPerimeter=0;endArrow=oval;endFill=0;" parent="1" source="CA8DIJyEQ-BG8HpjzGWb-42" edge="1">
          <mxGeometry relative="1" as="geometry">
            <mxPoint x="696" y="401" as="targetPoint" />
          </mxGeometry>
        </mxCell>
        <mxCell id="CA8DIJyEQ-BG8HpjzGWb-42" value="Recensione Utente" style="rhombus;whiteSpace=wrap;html=1;fillColor=#f8cecc;strokeColor=#b85450;" parent="1" vertex="1">
          <mxGeometry x="690" y="398" width="100" height="70" as="geometry" />
        </mxCell>
        <mxCell id="CA8DIJyEQ-BG8HpjzGWb-45" style="edgeStyle=orthogonalEdgeStyle;rounded=0;orthogonalLoop=1;jettySize=auto;html=1;endArrow=none;endFill=0;" parent="1" source="CA8DIJyEQ-BG8HpjzGWb-44" target="CA8DIJyEQ-BG8HpjzGWb-46" edge="1">
          <mxGeometry relative="1" as="geometry">
            <mxPoint x="1280" y="313" as="targetPoint" />
          </mxGeometry>
        </mxCell>
        <mxCell id="TzTqIZtNaXJvueZtooWY-18" style="edgeStyle=orthogonalEdgeStyle;rounded=0;orthogonalLoop=1;jettySize=auto;html=1;endArrow=oval;endFill=0;exitX=1.009;exitY=0.087;exitDx=0;exitDy=0;exitPerimeter=0;entryX=0.01;entryY=0.52;entryDx=0;entryDy=0;entryPerimeter=0;" parent="1" source="CA8DIJyEQ-BG8HpjzGWb-44" target="TzTqIZtNaXJvueZtooWY-19" edge="1">
          <mxGeometry relative="1" as="geometry">
            <mxPoint x="1484" y="256.5" as="targetPoint" />
            <Array as="points">
              <mxPoint x="1484" y="231.5" />
              <mxPoint x="1515" y="232.5" />
            </Array>
          </mxGeometry>
        </mxCell>
        <mxCell id="TzTqIZtNaXJvueZtooWY-21" style="edgeStyle=orthogonalEdgeStyle;rounded=0;orthogonalLoop=1;jettySize=auto;html=1;endArrow=oval;endFill=0;entryX=-0.011;entryY=0.48;entryDx=0;entryDy=0;entryPerimeter=0;" parent="1" target="TzTqIZtNaXJvueZtooWY-22" edge="1">
          <mxGeometry relative="1" as="geometry">
            <mxPoint x="1564" y="246.25" as="targetPoint" />
            <mxPoint x="1474" y="248.25" as="sourcePoint" />
            <Array as="points">
              <mxPoint x="1484" y="248.5" />
            </Array>
          </mxGeometry>
        </mxCell>
        <mxCell id="TzTqIZtNaXJvueZtooWY-26" style="edgeStyle=orthogonalEdgeStyle;rounded=0;orthogonalLoop=1;jettySize=auto;html=1;exitX=1.004;exitY=0.922;exitDx=0;exitDy=0;exitPerimeter=0;endArrow=oval;endFill=0;entryX=-0.011;entryY=0.6;entryDx=0;entryDy=0;entryPerimeter=0;" parent="1" source="CA8DIJyEQ-BG8HpjzGWb-44" target="TzTqIZtNaXJvueZtooWY-27" edge="1">
          <mxGeometry relative="1" as="geometry">
            <mxPoint x="1444" y="216.5" as="targetPoint" />
          </mxGeometry>
        </mxCell>
        <mxCell id="TzTqIZtNaXJvueZtooWY-38" style="edgeStyle=orthogonalEdgeStyle;rounded=0;orthogonalLoop=1;jettySize=auto;html=1;exitX=0.106;exitY=-0.047;exitDx=0;exitDy=0;exitPerimeter=0;endArrow=oval;endFill=1;" parent="1" source="CA8DIJyEQ-BG8HpjzGWb-44" target="TzTqIZtNaXJvueZtooWY-14" edge="1">
          <mxGeometry relative="1" as="geometry" />
        </mxCell>
        <mxCell id="TzTqIZtNaXJvueZtooWY-40" style="edgeStyle=orthogonalEdgeStyle;rounded=0;orthogonalLoop=1;jettySize=auto;html=1;endArrow=oval;endFill=0;" parent="1" target="TzTqIZtNaXJvueZtooWY-41" edge="1">
          <mxGeometry relative="1" as="geometry">
            <mxPoint x="1433.75" y="206.5" as="targetPoint" />
            <mxPoint x="1433.75" y="226.5" as="sourcePoint" />
          </mxGeometry>
        </mxCell>
        <mxCell id="TzTqIZtNaXJvueZtooWY-45" style="edgeStyle=orthogonalEdgeStyle;rounded=0;orthogonalLoop=1;jettySize=auto;html=1;exitX=0.991;exitY=0.713;exitDx=0;exitDy=0;exitPerimeter=0;endArrow=oval;endFill=0;entryX=-0.008;entryY=0.553;entryDx=0;entryDy=0;entryPerimeter=0;" parent="1" source="CA8DIJyEQ-BG8HpjzGWb-44" target="TzTqIZtNaXJvueZtooWY-47" edge="1">
          <mxGeometry relative="1" as="geometry">
            <mxPoint x="1514" y="276.5" as="targetPoint" />
            <Array as="points">
              <mxPoint x="1513" y="269.5" />
            </Array>
          </mxGeometry>
        </mxCell>
        <mxCell id="nLwUZ7-GpoZsQczw0JLD-174" style="edgeStyle=orthogonalEdgeStyle;rounded=0;orthogonalLoop=1;jettySize=auto;html=1;exitX=0.124;exitY=0.015;exitDx=0;exitDy=0;exitPerimeter=0;entryX=1;entryY=0.5;entryDx=0;entryDy=0;endArrow=none;endFill=0;" parent="1" source="CA8DIJyEQ-BG8HpjzGWb-44" target="nLwUZ7-GpoZsQczw0JLD-175" edge="1">
          <mxGeometry relative="1" as="geometry">
            <mxPoint x="1306" y="169" as="targetPoint" />
            <mxPoint x="1354" y="193" as="sourcePoint" />
          </mxGeometry>
        </mxCell>
        <mxCell id="CA8DIJyEQ-BG8HpjzGWb-44" value="Abbonamento" style="rounded=0;whiteSpace=wrap;html=1;fillColor=#f8cecc;strokeColor=#b85450;" parent="1" vertex="1">
          <mxGeometry x="1334" y="226.5" width="140" height="60" as="geometry" />
        </mxCell>
        <mxCell id="CA8DIJyEQ-BG8HpjzGWb-47" style="edgeStyle=orthogonalEdgeStyle;rounded=0;orthogonalLoop=1;jettySize=auto;html=1;entryX=0.75;entryY=0;entryDx=0;entryDy=0;endArrow=none;endFill=0;" parent="1" source="CA8DIJyEQ-BG8HpjzGWb-46" target="CA8DIJyEQ-BG8HpjzGWb-37" edge="1">
          <mxGeometry relative="1" as="geometry" />
        </mxCell>
        <mxCell id="TzTqIZtNaXJvueZtooWY-61" style="edgeStyle=orthogonalEdgeStyle;rounded=0;orthogonalLoop=1;jettySize=auto;html=1;endArrow=oval;endFill=0;" parent="1" source="CA8DIJyEQ-BG8HpjzGWb-46" target="TzTqIZtNaXJvueZtooWY-62" edge="1">
          <mxGeometry relative="1" as="geometry">
            <mxPoint x="1280" y="253" as="targetPoint" />
          </mxGeometry>
        </mxCell>
        <mxCell id="CA8DIJyEQ-BG8HpjzGWb-46" value="Acquisto" style="rhombus;whiteSpace=wrap;html=1;fillColor=#f8cecc;strokeColor=#b85450;" parent="1" vertex="1">
          <mxGeometry x="1160" y="228.5" width="80" height="56" as="geometry" />
        </mxCell>
        <mxCell id="CA8DIJyEQ-BG8HpjzGWb-50" style="edgeStyle=orthogonalEdgeStyle;rounded=0;orthogonalLoop=1;jettySize=auto;html=1;endArrow=none;endFill=0;" parent="1" source="CA8DIJyEQ-BG8HpjzGWb-49" target="CA8DIJyEQ-BG8HpjzGWb-51" edge="1">
          <mxGeometry relative="1" as="geometry">
            <mxPoint x="1280" y="398" as="targetPoint" />
          </mxGeometry>
        </mxCell>
        <mxCell id="CA8DIJyEQ-BG8HpjzGWb-49" value="Possesso" style="rhombus;whiteSpace=wrap;html=1;fillColor=#f8cecc;strokeColor=#b85450;" parent="1" vertex="1">
          <mxGeometry x="1140" y="354.25" width="90" height="62.5" as="geometry" />
        </mxCell>
        <mxCell id="twbjdaluW3R16mWwh6AZ-12" style="edgeStyle=orthogonalEdgeStyle;rounded=0;orthogonalLoop=1;jettySize=auto;html=1;exitX=0.195;exitY=0.172;exitDx=0;exitDy=0;exitPerimeter=0;endArrow=oval;endFill=1;" parent="1" source="CA8DIJyEQ-BG8HpjzGWb-51" target="twbjdaluW3R16mWwh6AZ-10" edge="1">
          <mxGeometry relative="1" as="geometry">
            <mxPoint x="1294" y="361" as="sourcePoint" />
            <Array as="points">
              <mxPoint x="1296" y="373" />
            </Array>
          </mxGeometry>
        </mxCell>
        <mxCell id="twbjdaluW3R16mWwh6AZ-13" style="edgeStyle=orthogonalEdgeStyle;rounded=0;orthogonalLoop=1;jettySize=auto;html=1;endArrow=oval;endFill=0;entryX=0.619;entryY=0.208;entryDx=0;entryDy=0;entryPerimeter=0;exitX=0;exitY=1;exitDx=0;exitDy=0;" parent="1" source="CA8DIJyEQ-BG8HpjzGWb-51" target="twbjdaluW3R16mWwh6AZ-14" edge="1">
          <mxGeometry relative="1" as="geometry">
            <mxPoint x="1411" y="370.66999999999996" as="targetPoint" />
            <mxPoint x="1375" y="370.66999999999996" as="sourcePoint" />
          </mxGeometry>
        </mxCell>
        <mxCell id="CA8DIJyEQ-BG8HpjzGWb-51" value="Carta di Credito" style="rounded=0;whiteSpace=wrap;html=1;fillColor=#f8cecc;strokeColor=#b85450;" parent="1" vertex="1">
          <mxGeometry x="1275" y="366.75" width="100" height="36.25" as="geometry" />
        </mxCell>
        <mxCell id="TzTqIZtNaXJvueZtooWY-55" style="edgeStyle=orthogonalEdgeStyle;rounded=0;orthogonalLoop=1;jettySize=auto;html=1;endArrow=oval;endFill=0;" parent="1" source="CA8DIJyEQ-BG8HpjzGWb-55" edge="1">
          <mxGeometry relative="1" as="geometry">
            <mxPoint x="1580" y="543" as="targetPoint" />
            <Array as="points">
              <mxPoint x="1570" y="543" />
              <mxPoint x="1570" y="543" />
            </Array>
          </mxGeometry>
        </mxCell>
        <mxCell id="TzTqIZtNaXJvueZtooWY-66" style="edgeStyle=orthogonalEdgeStyle;rounded=0;orthogonalLoop=1;jettySize=auto;html=1;endArrow=oval;endFill=0;entryX=0.363;entryY=0.033;entryDx=0;entryDy=0;entryPerimeter=0;" parent="1" source="CA8DIJyEQ-BG8HpjzGWb-55" target="TzTqIZtNaXJvueZtooWY-67" edge="1">
          <mxGeometry relative="1" as="geometry">
            <mxPoint x="1490" y="583" as="targetPoint" />
            <Array as="points">
              <mxPoint x="1460" y="583" />
              <mxPoint x="1459" y="583" />
            </Array>
          </mxGeometry>
        </mxCell>
        <mxCell id="twbjdaluW3R16mWwh6AZ-1" style="edgeStyle=orthogonalEdgeStyle;rounded=0;orthogonalLoop=1;jettySize=auto;html=1;endArrow=none;endFill=0;" parent="1" source="CA8DIJyEQ-BG8HpjzGWb-55" edge="1">
          <mxGeometry relative="1" as="geometry">
            <mxPoint x="1234" y="533" as="targetPoint" />
          </mxGeometry>
        </mxCell>
        <mxCell id="CA8DIJyEQ-BG8HpjzGWb-55" value="Fattura" style="rounded=0;whiteSpace=wrap;html=1;fillColor=#f8cecc;strokeColor=#b85450;" parent="1" vertex="1">
          <mxGeometry x="1435" y="513" width="110" height="40" as="geometry" />
        </mxCell>
        <mxCell id="CA8DIJyEQ-BG8HpjzGWb-58" style="edgeStyle=orthogonalEdgeStyle;rounded=0;orthogonalLoop=1;jettySize=auto;html=1;endArrow=none;endFill=0;entryX=0.161;entryY=0.018;entryDx=0;entryDy=0;entryPerimeter=0;" parent="1" source="CA8DIJyEQ-BG8HpjzGWb-57" target="CA8DIJyEQ-BG8HpjzGWb-55" edge="1">
          <mxGeometry relative="1" as="geometry" />
        </mxCell>
        <mxCell id="CHpEICkRL-nOFaAy0Jc8-8" style="edgeStyle=orthogonalEdgeStyle;rounded=0;orthogonalLoop=1;jettySize=auto;html=1;entryX=0.471;entryY=0.069;entryDx=0;entryDy=0;entryPerimeter=0;endArrow=oval;endFill=0;" parent="1" source="CA8DIJyEQ-BG8HpjzGWb-57" target="TzTqIZtNaXJvueZtooWY-60" edge="1">
          <mxGeometry relative="1" as="geometry" />
        </mxCell>
        <mxCell id="CA8DIJyEQ-BG8HpjzGWb-57" value="Pagamento" style="rhombus;whiteSpace=wrap;html=1;fillColor=#f8cecc;strokeColor=#b85450;" parent="1" vertex="1">
          <mxGeometry x="1280" y="433" width="90" height="60" as="geometry" />
        </mxCell>
        <mxCell id="CA8DIJyEQ-BG8HpjzGWb-61" style="edgeStyle=orthogonalEdgeStyle;rounded=0;orthogonalLoop=1;jettySize=auto;html=1;endArrow=none;endFill=0;" parent="1" source="CA8DIJyEQ-BG8HpjzGWb-59" edge="1">
          <mxGeometry relative="1" as="geometry">
            <mxPoint x="1025" y="633" as="targetPoint" />
          </mxGeometry>
        </mxCell>
        <mxCell id="CA8DIJyEQ-BG8HpjzGWb-59" value="Inizializzazione" style="rhombus;whiteSpace=wrap;html=1;fillColor=#f8cecc;strokeColor=#b85450;rounded=0;" parent="1" vertex="1">
          <mxGeometry x="997.5" y="498" width="95" height="70" as="geometry" />
        </mxCell>
        <mxCell id="CA8DIJyEQ-BG8HpjzGWb-63" style="edgeStyle=orthogonalEdgeStyle;rounded=0;orthogonalLoop=1;jettySize=auto;html=1;endArrow=none;endFill=0;" parent="1" source="CA8DIJyEQ-BG8HpjzGWb-62" target="CA8DIJyEQ-BG8HpjzGWb-64" edge="1">
          <mxGeometry relative="1" as="geometry">
            <mxPoint x="1120" y="653" as="targetPoint" />
          </mxGeometry>
        </mxCell>
        <mxCell id="CA8DIJyEQ-BG8HpjzGWb-67" style="edgeStyle=orthogonalEdgeStyle;rounded=0;orthogonalLoop=1;jettySize=auto;html=1;endArrow=none;endFill=0;" parent="1" source="CA8DIJyEQ-BG8HpjzGWb-62" target="CA8DIJyEQ-BG8HpjzGWb-68" edge="1">
          <mxGeometry relative="1" as="geometry">
            <mxPoint x="1025" y="743" as="targetPoint" />
          </mxGeometry>
        </mxCell>
        <mxCell id="TzTqIZtNaXJvueZtooWY-1" style="edgeStyle=orthogonalEdgeStyle;rounded=0;orthogonalLoop=1;jettySize=auto;html=1;endArrow=oval;endFill=0;" parent="1" source="CA8DIJyEQ-BG8HpjzGWb-62" edge="1">
          <mxGeometry relative="1" as="geometry">
            <mxPoint x="940" y="643" as="targetPoint" />
            <Array as="points">
              <mxPoint x="950" y="643" />
              <mxPoint x="950" y="643" />
            </Array>
          </mxGeometry>
        </mxCell>
        <mxCell id="TzTqIZtNaXJvueZtooWY-3" style="edgeStyle=orthogonalEdgeStyle;rounded=0;orthogonalLoop=1;jettySize=auto;html=1;endArrow=oval;endFill=0;" parent="1" source="CA8DIJyEQ-BG8HpjzGWb-62" edge="1">
          <mxGeometry relative="1" as="geometry">
            <mxPoint x="940" y="663" as="targetPoint" />
            <Array as="points">
              <mxPoint x="950" y="663" />
              <mxPoint x="950" y="663" />
            </Array>
          </mxGeometry>
        </mxCell>
        <mxCell id="TzTqIZtNaXJvueZtooWY-7" style="edgeStyle=orthogonalEdgeStyle;rounded=0;orthogonalLoop=1;jettySize=auto;html=1;endArrow=oval;endFill=0;entryX=0.417;entryY=0.95;entryDx=0;entryDy=0;entryPerimeter=0;" parent="1" target="TzTqIZtNaXJvueZtooWY-2" edge="1">
          <mxGeometry relative="1" as="geometry">
            <mxPoint x="1070" y="613" as="targetPoint" />
            <mxPoint x="1069.8" y="633" as="sourcePoint" />
            <Array as="points">
              <mxPoint x="1070" y="633" />
            </Array>
          </mxGeometry>
        </mxCell>
        <mxCell id="CA8DIJyEQ-BG8HpjzGWb-62" value="Connessione" style="rounded=0;whiteSpace=wrap;html=1;fillColor=#f8cecc;strokeColor=#b85450;" parent="1" vertex="1">
          <mxGeometry x="970" y="633" width="110" height="40" as="geometry" />
        </mxCell>
        <mxCell id="CA8DIJyEQ-BG8HpjzGWb-65" style="edgeStyle=orthogonalEdgeStyle;rounded=0;orthogonalLoop=1;jettySize=auto;html=1;endArrow=none;endFill=0;" parent="1" source="CA8DIJyEQ-BG8HpjzGWb-64" target="CA8DIJyEQ-BG8HpjzGWb-66" edge="1">
          <mxGeometry relative="1" as="geometry">
            <mxPoint x="1260" y="653" as="targetPoint" />
          </mxGeometry>
        </mxCell>
        <mxCell id="CA8DIJyEQ-BG8HpjzGWb-64" value="UtilizzoD" style="rhombus;whiteSpace=wrap;html=1;fillColor=#f8cecc;strokeColor=#b85450;" parent="1" vertex="1">
          <mxGeometry x="1170" y="623" width="90" height="60" as="geometry" />
        </mxCell>
        <mxCell id="TzTqIZtNaXJvueZtooWY-10" style="edgeStyle=orthogonalEdgeStyle;rounded=0;orthogonalLoop=1;jettySize=auto;html=1;endArrow=oval;endFill=0;" parent="1" source="CA8DIJyEQ-BG8HpjzGWb-66" target="TzTqIZtNaXJvueZtooWY-9" edge="1">
          <mxGeometry relative="1" as="geometry">
            <Array as="points">
              <mxPoint x="1385" y="683" />
              <mxPoint x="1385" y="683" />
            </Array>
          </mxGeometry>
        </mxCell>
        <mxCell id="TzTqIZtNaXJvueZtooWY-11" style="edgeStyle=orthogonalEdgeStyle;rounded=0;orthogonalLoop=1;jettySize=auto;html=1;endArrow=oval;endFill=1;" parent="1" source="CA8DIJyEQ-BG8HpjzGWb-66" edge="1">
          <mxGeometry relative="1" as="geometry">
            <mxPoint x="1415" y="703" as="targetPoint" />
          </mxGeometry>
        </mxCell>
        <mxCell id="Thu5VVuTW2hiQ9AMxA9K-8" style="edgeStyle=orthogonalEdgeStyle;rounded=0;orthogonalLoop=1;jettySize=auto;html=1;exitX=0.941;exitY=1.075;exitDx=0;exitDy=0;exitPerimeter=0;endArrow=oval;endFill=0;" parent="1" source="CA8DIJyEQ-BG8HpjzGWb-66" edge="1">
          <mxGeometry relative="1" as="geometry">
            <mxPoint x="1464" y="701" as="targetPoint" />
          </mxGeometry>
        </mxCell>
        <mxCell id="HjDPrr2OueLgmiNBQEms-2" style="edgeStyle=orthogonalEdgeStyle;rounded=0;orthogonalLoop=1;jettySize=auto;html=1;endArrow=oval;endFill=0;" parent="1" source="CA8DIJyEQ-BG8HpjzGWb-66" edge="1">
          <mxGeometry relative="1" as="geometry">
            <mxPoint x="1500" y="653" as="targetPoint" />
          </mxGeometry>
        </mxCell>
        <mxCell id="CA8DIJyEQ-BG8HpjzGWb-66" value="Dispositivo" style="rounded=0;whiteSpace=wrap;html=1;fillColor=#f8cecc;strokeColor=#b85450;" parent="1" vertex="1">
          <mxGeometry x="1360" y="633" width="110" height="40" as="geometry" />
        </mxCell>
        <mxCell id="CA8DIJyEQ-BG8HpjzGWb-69" style="edgeStyle=orthogonalEdgeStyle;rounded=0;orthogonalLoop=1;jettySize=auto;html=1;endArrow=none;endFill=0;" parent="1" source="CA8DIJyEQ-BG8HpjzGWb-68" target="CA8DIJyEQ-BG8HpjzGWb-70" edge="1">
          <mxGeometry relative="1" as="geometry">
            <mxPoint x="1025" y="843" as="targetPoint" />
          </mxGeometry>
        </mxCell>
        <mxCell id="CA8DIJyEQ-BG8HpjzGWb-68" value="Richiesta" style="rhombus;whiteSpace=wrap;html=1;fillColor=#dae8fc;strokeColor=#6c8ebf;" parent="1" vertex="1">
          <mxGeometry x="982.5" y="733" width="85" height="60" as="geometry" />
        </mxCell>
        <mxCell id="CA8DIJyEQ-BG8HpjzGWb-75" style="edgeStyle=orthogonalEdgeStyle;rounded=0;orthogonalLoop=1;jettySize=auto;html=1;endArrow=none;endFill=0;" parent="1" source="CA8DIJyEQ-BG8HpjzGWb-70" target="CA8DIJyEQ-BG8HpjzGWb-76" edge="1">
          <mxGeometry relative="1" as="geometry">
            <mxPoint x="1140" y="863" as="targetPoint" />
          </mxGeometry>
        </mxCell>
        <mxCell id="twbjdaluW3R16mWwh6AZ-20" style="edgeStyle=orthogonalEdgeStyle;rounded=0;orthogonalLoop=1;jettySize=auto;html=1;endArrow=oval;endFill=0;exitX=1;exitY=0.75;exitDx=0;exitDy=0;" parent="1" source="CA8DIJyEQ-BG8HpjzGWb-70" edge="1">
          <mxGeometry relative="1" as="geometry">
            <mxPoint x="1102" y="873" as="targetPoint" />
          </mxGeometry>
        </mxCell>
        <mxCell id="twbjdaluW3R16mWwh6AZ-26" style="edgeStyle=orthogonalEdgeStyle;rounded=0;orthogonalLoop=1;jettySize=auto;html=1;endArrow=oval;endFill=0;" parent="1" edge="1">
          <mxGeometry relative="1" as="geometry">
            <mxPoint x="1102" y="853" as="targetPoint" />
            <mxPoint x="1078" y="853" as="sourcePoint" />
          </mxGeometry>
        </mxCell>
        <mxCell id="CA8DIJyEQ-BG8HpjzGWb-70" value="Visualizzazione" style="rounded=0;whiteSpace=wrap;html=1;fillColor=#dae8fc;strokeColor=#6c8ebf;" parent="1" vertex="1">
          <mxGeometry x="972.5" y="843" width="105" height="40" as="geometry" />
        </mxCell>
        <mxCell id="CA8DIJyEQ-BG8HpjzGWb-74" style="edgeStyle=orthogonalEdgeStyle;rounded=0;orthogonalLoop=1;jettySize=auto;html=1;exitX=0.5;exitY=0;exitDx=0;exitDy=0;endArrow=none;endFill=0;entryX=0.376;entryY=1.004;entryDx=0;entryDy=0;entryPerimeter=0;" parent="1" source="CA8DIJyEQ-BG8HpjzGWb-73" target="CA8DIJyEQ-BG8HpjzGWb-14" edge="1">
          <mxGeometry relative="1" as="geometry">
            <mxPoint x="420" y="363" as="targetPoint" />
            <Array as="points">
              <mxPoint x="120" y="833" />
              <mxPoint x="120" y="361" />
              <mxPoint x="473" y="361" />
              <mxPoint x="473" y="283" />
              <mxPoint x="474" y="283" />
              <mxPoint x="474" y="282" />
              <mxPoint x="474" y="282" />
            </Array>
          </mxGeometry>
        </mxCell>
        <mxCell id="CA8DIJyEQ-BG8HpjzGWb-73" value="Accesso" style="rhombus;whiteSpace=wrap;html=1;fillColor=#dae8fc;strokeColor=#6c8ebf;" parent="1" vertex="1">
          <mxGeometry x="72" y="833" width="98.12" height="60" as="geometry" />
        </mxCell>
        <mxCell id="CA8DIJyEQ-BG8HpjzGWb-77" style="edgeStyle=orthogonalEdgeStyle;rounded=0;orthogonalLoop=1;jettySize=auto;html=1;endArrow=none;endFill=0;" parent="1" source="CA8DIJyEQ-BG8HpjzGWb-76" target="CA8DIJyEQ-BG8HpjzGWb-78" edge="1">
          <mxGeometry relative="1" as="geometry">
            <mxPoint x="1025" y="1073" as="targetPoint" />
          </mxGeometry>
        </mxCell>
        <mxCell id="CA8DIJyEQ-BG8HpjzGWb-76" value="Utilizzo" style="rhombus;whiteSpace=wrap;html=1;fillColor=#dae8fc;strokeColor=#6c8ebf;" parent="1" vertex="1">
          <mxGeometry x="977.5" y="943" width="95" height="60" as="geometry" />
        </mxCell>
        <mxCell id="CA8DIJyEQ-BG8HpjzGWb-83" style="edgeStyle=orthogonalEdgeStyle;rounded=0;orthogonalLoop=1;jettySize=auto;html=1;exitX=0.5;exitY=1;exitDx=0;exitDy=0;endArrow=none;endFill=0;" parent="1" source="CA8DIJyEQ-BG8HpjzGWb-78" target="CA8DIJyEQ-BG8HpjzGWb-84" edge="1">
          <mxGeometry relative="1" as="geometry">
            <mxPoint x="50" y="623" as="targetPoint" />
            <Array as="points">
              <mxPoint x="1029" y="1129" />
              <mxPoint x="50" y="1129" />
            </Array>
          </mxGeometry>
        </mxCell>
        <mxCell id="twbjdaluW3R16mWwh6AZ-29" style="edgeStyle=orthogonalEdgeStyle;rounded=0;orthogonalLoop=1;jettySize=auto;html=1;endArrow=oval;endFill=0;exitX=1.011;exitY=0.073;exitDx=0;exitDy=0;exitPerimeter=0;" parent="1" source="CA8DIJyEQ-BG8HpjzGWb-78" edge="1">
          <mxGeometry relative="1" as="geometry">
            <mxPoint x="1126" y="1057" as="targetPoint" />
          </mxGeometry>
        </mxCell>
        <mxCell id="twbjdaluW3R16mWwh6AZ-31" style="edgeStyle=orthogonalEdgeStyle;rounded=0;orthogonalLoop=1;jettySize=auto;html=1;exitX=0.984;exitY=0.245;exitDx=0;exitDy=0;exitPerimeter=0;endArrow=oval;endFill=1;" parent="1" source="CA8DIJyEQ-BG8HpjzGWb-78" edge="1">
          <mxGeometry relative="1" as="geometry">
            <mxPoint x="1126" y="1069" as="targetPoint" />
          </mxGeometry>
        </mxCell>
        <mxCell id="twbjdaluW3R16mWwh6AZ-34" style="edgeStyle=orthogonalEdgeStyle;rounded=0;orthogonalLoop=1;jettySize=auto;html=1;endArrow=oval;endFill=0;" parent="1" source="CA8DIJyEQ-BG8HpjzGWb-78" edge="1">
          <mxGeometry relative="1" as="geometry">
            <mxPoint x="1126" y="1085" as="targetPoint" />
          </mxGeometry>
        </mxCell>
        <mxCell id="nLwUZ7-GpoZsQczw0JLD-100" style="edgeStyle=orthogonalEdgeStyle;rounded=0;orthogonalLoop=1;jettySize=auto;html=1;endArrow=oval;endFill=0;" parent="1" source="CA8DIJyEQ-BG8HpjzGWb-78" edge="1">
          <mxGeometry relative="1" as="geometry">
            <mxPoint x="922" y="1085" as="targetPoint" />
          </mxGeometry>
        </mxCell>
        <mxCell id="CA8DIJyEQ-BG8HpjzGWb-78" value="Server" style="rounded=0;whiteSpace=wrap;html=1;fillColor=#dae8fc;strokeColor=#6c8ebf;" parent="1" vertex="1">
          <mxGeometry x="967.5" y="1053" width="122.5" height="64" as="geometry" />
        </mxCell>
        <mxCell id="twbjdaluW3R16mWwh6AZ-42" style="edgeStyle=orthogonalEdgeStyle;rounded=0;orthogonalLoop=1;jettySize=auto;html=1;exitX=0;exitY=0.25;exitDx=0;exitDy=0;endArrow=oval;endFill=0;" parent="1" target="twbjdaluW3R16mWwh6AZ-39" edge="1">
          <mxGeometry relative="1" as="geometry">
            <mxPoint x="966" y="1060.125" as="sourcePoint" />
          </mxGeometry>
        </mxCell>
        <mxCell id="CA8DIJyEQ-BG8HpjzGWb-85" style="edgeStyle=orthogonalEdgeStyle;rounded=0;orthogonalLoop=1;jettySize=auto;html=1;endArrow=none;endFill=0;" parent="1" source="CA8DIJyEQ-BG8HpjzGWb-84" target="CA8DIJyEQ-BG8HpjzGWb-14" edge="1">
          <mxGeometry relative="1" as="geometry">
            <mxPoint x="250" y="333" as="targetPoint" />
            <Array as="points">
              <mxPoint x="50" y="333" />
              <mxPoint x="432" y="333" />
            </Array>
          </mxGeometry>
        </mxCell>
        <mxCell id="CA8DIJyEQ-BG8HpjzGWb-84" value="Possesso Server" style="rhombus;whiteSpace=wrap;html=1;fillColor=#dae8fc;strokeColor=#6c8ebf;" parent="1" vertex="1">
          <mxGeometry x="10" y="593" width="80" height="50" as="geometry" />
        </mxCell>
        <mxCell id="X5VYXHr65bgpFRcitx1M-1" value="(1,n)" style="text;html=1;align=center;verticalAlign=middle;resizable=0;points=[];autosize=1;strokeColor=none;fillColor=none;" parent="1" vertex="1">
          <mxGeometry x="450.75" y="448" width="50" height="30" as="geometry" />
        </mxCell>
        <mxCell id="X5VYXHr65bgpFRcitx1M-2" value="(1,1)" style="text;html=1;align=center;verticalAlign=middle;resizable=0;points=[];autosize=1;strokeColor=none;fillColor=none;" parent="1" vertex="1">
          <mxGeometry x="480" y="218" width="50" height="30" as="geometry" />
        </mxCell>
        <mxCell id="X5VYXHr65bgpFRcitx1M-9" value="(1,n)" style="text;html=1;align=center;verticalAlign=middle;resizable=0;points=[];autosize=1;strokeColor=none;fillColor=none;" parent="1" vertex="1">
          <mxGeometry x="522.75" y="491" width="50" height="30" as="geometry" />
        </mxCell>
        <mxCell id="X5VYXHr65bgpFRcitx1M-10" value="(1,n)" style="text;html=1;align=center;verticalAlign=middle;resizable=0;points=[];autosize=1;strokeColor=none;fillColor=none;" parent="1" vertex="1">
          <mxGeometry x="730" y="501" width="50" height="30" as="geometry" />
        </mxCell>
        <mxCell id="X5VYXHr65bgpFRcitx1M-11" value="(0,n)" style="text;html=1;align=center;verticalAlign=middle;resizable=0;points=[];autosize=1;strokeColor=none;fillColor=none;" parent="1" vertex="1">
          <mxGeometry x="805" y="521" width="50" height="30" as="geometry" />
        </mxCell>
        <mxCell id="X5VYXHr65bgpFRcitx1M-15" value="(0,n)" style="text;html=1;align=center;verticalAlign=middle;resizable=0;points=[];autosize=1;strokeColor=none;fillColor=none;" parent="1" vertex="1">
          <mxGeometry x="470" y="538" width="50" height="30" as="geometry" />
        </mxCell>
        <mxCell id="X5VYXHr65bgpFRcitx1M-16" value="(1,1)" style="text;html=1;align=center;verticalAlign=middle;resizable=0;points=[];autosize=1;strokeColor=none;fillColor=none;" parent="1" vertex="1">
          <mxGeometry x="420" y="531" width="50" height="30" as="geometry" />
        </mxCell>
        <mxCell id="X5VYXHr65bgpFRcitx1M-17" value="(1,n)" style="text;html=1;align=center;verticalAlign=middle;resizable=0;points=[];autosize=1;strokeColor=none;fillColor=none;" parent="1" vertex="1">
          <mxGeometry x="245" y="701" width="50" height="30" as="geometry" />
        </mxCell>
        <mxCell id="X5VYXHr65bgpFRcitx1M-19" value="(1,n)" style="text;html=1;align=center;verticalAlign=middle;resizable=0;points=[];autosize=1;strokeColor=none;fillColor=none;" parent="1" vertex="1">
          <mxGeometry x="523.75" y="459" width="50" height="30" as="geometry" />
        </mxCell>
        <mxCell id="X5VYXHr65bgpFRcitx1M-23" value="(0,n)" style="text;html=1;align=center;verticalAlign=middle;resizable=0;points=[];autosize=1;strokeColor=none;fillColor=none;" parent="1" vertex="1">
          <mxGeometry x="921" y="401" width="48" height="24" as="geometry" />
        </mxCell>
        <mxCell id="X5VYXHr65bgpFRcitx1M-24" value="(0,n)" style="text;html=1;align=center;verticalAlign=middle;resizable=0;points=[];autosize=1;strokeColor=none;fillColor=none;" parent="1" vertex="1">
          <mxGeometry x="1067.5" y="313" width="50" height="30" as="geometry" />
        </mxCell>
        <mxCell id="X5VYXHr65bgpFRcitx1M-25" value="(0,n)" style="text;html=1;align=center;verticalAlign=middle;resizable=0;points=[];autosize=1;strokeColor=none;fillColor=none;" parent="1" vertex="1">
          <mxGeometry x="1294" y="232.75" width="50" height="30" as="geometry" />
        </mxCell>
        <mxCell id="X5VYXHr65bgpFRcitx1M-28" value="(1,1)" style="text;html=1;align=center;verticalAlign=middle;resizable=0;points=[];autosize=1;strokeColor=none;fillColor=none;" parent="1" vertex="1">
          <mxGeometry x="1376" y="510.5" width="50" height="30" as="geometry" />
        </mxCell>
        <mxCell id="X5VYXHr65bgpFRcitx1M-29" value="(1,n)" style="text;html=1;align=center;verticalAlign=middle;resizable=0;points=[];autosize=1;strokeColor=none;fillColor=none;" parent="1" vertex="1">
          <mxGeometry x="1321" y="404" width="48" height="24" as="geometry" />
        </mxCell>
        <mxCell id="X5VYXHr65bgpFRcitx1M-30" value="(0,n)" style="text;html=1;align=center;verticalAlign=middle;resizable=0;points=[];autosize=1;strokeColor=none;fillColor=none;" parent="1" vertex="1">
          <mxGeometry x="1110" y="361" width="50" height="30" as="geometry" />
        </mxCell>
        <mxCell id="X5VYXHr65bgpFRcitx1M-31" value="(1,1)" style="text;html=1;align=center;verticalAlign=middle;resizable=0;points=[];autosize=1;strokeColor=none;fillColor=none;" parent="1" vertex="1">
          <mxGeometry x="1235" y="363" width="50" height="30" as="geometry" />
        </mxCell>
        <mxCell id="X5VYXHr65bgpFRcitx1M-32" value="(0,n)" style="text;html=1;align=center;verticalAlign=middle;resizable=0;points=[];autosize=1;strokeColor=none;fillColor=none;" parent="1" vertex="1">
          <mxGeometry x="1032.5" y="418" width="50" height="30" as="geometry" />
        </mxCell>
        <mxCell id="X5VYXHr65bgpFRcitx1M-33" value="(1,1)" style="text;html=1;align=center;verticalAlign=middle;resizable=0;points=[];autosize=1;strokeColor=none;fillColor=none;" parent="1" vertex="1">
          <mxGeometry x="978" y="608" width="50" height="30" as="geometry" />
        </mxCell>
        <mxCell id="X5VYXHr65bgpFRcitx1M-34" value="(1,1)" style="text;html=1;align=center;verticalAlign=middle;resizable=0;points=[];autosize=1;strokeColor=none;fillColor=none;" parent="1" vertex="1">
          <mxGeometry x="1082.5" y="628" width="50" height="30" as="geometry" />
        </mxCell>
        <mxCell id="X5VYXHr65bgpFRcitx1M-35" value="(0,n)" style="text;html=1;align=center;verticalAlign=middle;resizable=0;points=[];autosize=1;strokeColor=none;fillColor=none;" parent="1" vertex="1">
          <mxGeometry x="1315" y="633" width="50" height="30" as="geometry" />
        </mxCell>
        <mxCell id="X5VYXHr65bgpFRcitx1M-36" value="(0,n)" style="text;html=1;align=center;verticalAlign=middle;resizable=0;points=[];autosize=1;strokeColor=none;fillColor=none;" parent="1" vertex="1">
          <mxGeometry x="981.25" y="673" width="50" height="30" as="geometry" />
        </mxCell>
        <mxCell id="X5VYXHr65bgpFRcitx1M-37" value="(1,1)" style="text;html=1;align=center;verticalAlign=middle;resizable=0;points=[];autosize=1;strokeColor=none;fillColor=none;" parent="1" vertex="1">
          <mxGeometry x="1012.5" y="821" width="50" height="30" as="geometry" />
        </mxCell>
        <mxCell id="X5VYXHr65bgpFRcitx1M-38" value="(1,1)" style="text;html=1;align=center;verticalAlign=middle;resizable=0;points=[];autosize=1;strokeColor=none;fillColor=none;" parent="1" vertex="1">
          <mxGeometry x="925" y="831" width="50" height="30" as="geometry" />
        </mxCell>
        <mxCell id="X5VYXHr65bgpFRcitx1M-39" value="(1,1)" style="text;html=1;align=center;verticalAlign=middle;resizable=0;points=[];autosize=1;strokeColor=none;fillColor=none;" parent="1" vertex="1">
          <mxGeometry x="1016" y="884" width="48" height="24" as="geometry" />
        </mxCell>
        <mxCell id="X5VYXHr65bgpFRcitx1M-40" value="(0,n)" style="text;html=1;align=center;verticalAlign=middle;resizable=0;points=[];autosize=1;strokeColor=none;fillColor=none;" parent="1" vertex="1">
          <mxGeometry x="1017.5" y="1020.5" width="50" height="30" as="geometry" />
        </mxCell>
        <mxCell id="X5VYXHr65bgpFRcitx1M-43" value="(0,n)" style="text;html=1;align=center;verticalAlign=middle;resizable=0;points=[];autosize=1;strokeColor=none;fillColor=none;" parent="1" vertex="1">
          <mxGeometry x="1020" y="1112" width="50" height="30" as="geometry" />
        </mxCell>
        <mxCell id="X5VYXHr65bgpFRcitx1M-44" value="(0,n)" style="text;html=1;align=center;verticalAlign=middle;resizable=0;points=[];autosize=1;strokeColor=none;fillColor=none;" parent="1" vertex="1">
          <mxGeometry x="436.5" y="216" width="50" height="30" as="geometry" />
        </mxCell>
        <mxCell id="X5VYXHr65bgpFRcitx1M-45" value="(1,n)" style="text;html=1;align=center;verticalAlign=middle;resizable=0;points=[];autosize=1;strokeColor=none;fillColor=none;" parent="1" vertex="1">
          <mxGeometry x="393.25" y="227.5" width="48" height="24" as="geometry" />
        </mxCell>
        <mxCell id="X5VYXHr65bgpFRcitx1M-49" value="Titolo" style="text;html=1;align=center;verticalAlign=middle;resizable=0;points=[];autosize=1;strokeColor=none;fillColor=none;" parent="1" vertex="1">
          <mxGeometry x="340" y="473" width="50" height="30" as="geometry" />
        </mxCell>
        <mxCell id="X5VYXHr65bgpFRcitx1M-51" value="Descrizione" style="text;html=1;align=center;verticalAlign=middle;resizable=0;points=[];autosize=1;strokeColor=none;fillColor=none;" parent="1" vertex="1">
          <mxGeometry x="300" y="488" width="90" height="30" as="geometry" />
        </mxCell>
        <mxCell id="X5VYXHr65bgpFRcitx1M-54" value="Durata" style="text;html=1;align=center;verticalAlign=middle;resizable=0;points=[];autosize=1;strokeColor=none;fillColor=none;" parent="1" vertex="1">
          <mxGeometry x="340" y="521" width="60" height="30" as="geometry" />
        </mxCell>
        <mxCell id="X5VYXHr65bgpFRcitx1M-58" value="Codice" style="text;html=1;align=center;verticalAlign=middle;resizable=0;points=[];autosize=1;strokeColor=none;fillColor=none;" parent="1" vertex="1">
          <mxGeometry x="330" y="461" width="60" height="30" as="geometry" />
        </mxCell>
        <mxCell id="X5VYXHr65bgpFRcitx1M-79" value="Tipo" style="text;html=1;align=center;verticalAlign=middle;resizable=0;points=[];autosize=1;strokeColor=none;fillColor=none;" parent="1" vertex="1">
          <mxGeometry x="425" y="977" width="50" height="30" as="geometry" />
        </mxCell>
        <mxCell id="X5VYXHr65bgpFRcitx1M-81" value="Valore" style="text;html=1;align=center;verticalAlign=middle;resizable=0;points=[];autosize=1;strokeColor=none;fillColor=none;" parent="1" vertex="1">
          <mxGeometry x="480" y="977" width="60" height="30" as="geometry" />
        </mxCell>
        <mxCell id="X5VYXHr65bgpFRcitx1M-83" value="Codice" style="text;html=1;align=center;verticalAlign=middle;resizable=0;points=[];autosize=1;strokeColor=none;fillColor=none;" parent="1" vertex="1">
          <mxGeometry x="225" y="783" width="60" height="30" as="geometry" />
        </mxCell>
        <mxCell id="X5VYXHr65bgpFRcitx1M-85" value="Codice" style="text;html=1;align=center;verticalAlign=middle;resizable=0;points=[];autosize=1;strokeColor=none;fillColor=none;" parent="1" vertex="1">
          <mxGeometry x="790" y="431" width="60" height="30" as="geometry" />
        </mxCell>
        <mxCell id="X5VYXHr65bgpFRcitx1M-87" value="Nome" style="text;html=1;align=center;verticalAlign=middle;resizable=0;points=[];autosize=1;strokeColor=none;fillColor=none;" parent="1" vertex="1">
          <mxGeometry x="880" y="473" width="60" height="30" as="geometry" />
        </mxCell>
        <mxCell id="X5VYXHr65bgpFRcitx1M-89" value="Cognome" style="text;html=1;align=center;verticalAlign=middle;resizable=0;points=[];autosize=1;strokeColor=none;fillColor=none;" parent="1" vertex="1">
          <mxGeometry x="880" y="498" width="80" height="30" as="geometry" />
        </mxCell>
        <mxCell id="X5VYXHr65bgpFRcitx1M-93" value="Nome" style="text;html=1;align=center;verticalAlign=middle;resizable=0;points=[];autosize=1;strokeColor=none;fillColor=none;" parent="1" vertex="1">
          <mxGeometry x="138.12" y="718" width="60" height="30" as="geometry" />
        </mxCell>
        <mxCell id="X5VYXHr65bgpFRcitx1M-94" value="Cognome" style="text;html=1;align=center;verticalAlign=middle;resizable=0;points=[];autosize=1;strokeColor=none;fillColor=none;" parent="1" vertex="1">
          <mxGeometry x="118.12" y="741" width="80" height="30" as="geometry" />
        </mxCell>
        <mxCell id="X5VYXHr65bgpFRcitx1M-96" value="Valore" style="text;html=1;align=center;verticalAlign=middle;resizable=0;points=[];autosize=1;strokeColor=none;fillColor=none;" parent="1" vertex="1">
          <mxGeometry x="785" y="383" width="60" height="30" as="geometry" />
        </mxCell>
        <mxCell id="X5VYXHr65bgpFRcitx1M-99" value="Codice" style="text;html=1;align=center;verticalAlign=middle;resizable=0;points=[];autosize=1;strokeColor=none;fillColor=none;" parent="1" vertex="1">
          <mxGeometry x="1026" y="296.75" width="60" height="30" as="geometry" />
        </mxCell>
        <mxCell id="X5VYXHr65bgpFRcitx1M-104" style="edgeStyle=orthogonalEdgeStyle;rounded=0;orthogonalLoop=1;jettySize=auto;html=1;endArrow=oval;endFill=0;entryX=0.538;entryY=-0.067;entryDx=0;entryDy=0;entryPerimeter=0;exitX=0.328;exitY=1.011;exitDx=0;exitDy=0;exitPerimeter=0;" parent="1" source="CA8DIJyEQ-BG8HpjzGWb-37" target="X5VYXHr65bgpFRcitx1M-105" edge="1">
          <mxGeometry relative="1" as="geometry">
            <mxPoint x="1006" y="491" as="targetPoint" />
            <mxPoint x="1013" y="353" as="sourcePoint" />
          </mxGeometry>
        </mxCell>
        <mxCell id="X5VYXHr65bgpFRcitx1M-108" style="edgeStyle=orthogonalEdgeStyle;rounded=0;orthogonalLoop=1;jettySize=auto;html=1;endArrow=oval;endFill=0;" parent="1" edge="1">
          <mxGeometry relative="1" as="geometry">
            <mxPoint x="952.5" y="356.875" as="targetPoint" />
            <mxPoint x="972" y="357" as="sourcePoint" />
          </mxGeometry>
        </mxCell>
        <mxCell id="X5VYXHr65bgpFRcitx1M-107" value="Cognome" style="text;html=1;align=center;verticalAlign=middle;resizable=0;points=[];autosize=1;strokeColor=none;fillColor=none;" parent="1" vertex="1">
          <mxGeometry x="960" y="437" width="80" height="30" as="geometry" />
        </mxCell>
        <mxCell id="X5VYXHr65bgpFRcitx1M-109" value="Email" style="text;html=1;align=center;verticalAlign=middle;resizable=0;points=[];autosize=1;strokeColor=none;fillColor=none;" parent="1" vertex="1">
          <mxGeometry x="910" y="340.5" width="50" height="30" as="geometry" />
        </mxCell>
        <mxCell id="X5VYXHr65bgpFRcitx1M-111" value="Password" style="text;html=1;align=center;verticalAlign=middle;resizable=0;points=[];autosize=1;strokeColor=none;fillColor=none;" parent="1" vertex="1">
          <mxGeometry x="923.75" y="300.25" width="80" height="30" as="geometry" />
        </mxCell>
        <mxCell id="TzTqIZtNaXJvueZtooWY-2" value="Inizio" style="text;html=1;align=center;verticalAlign=middle;resizable=0;points=[];autosize=1;strokeColor=none;fillColor=none;" parent="1" vertex="1">
          <mxGeometry x="1049.5" y="580" width="50" height="30" as="geometry" />
        </mxCell>
        <mxCell id="TzTqIZtNaXJvueZtooWY-4" value="Fine" style="text;html=1;align=center;verticalAlign=middle;resizable=0;points=[];autosize=1;strokeColor=none;fillColor=none;" parent="1" vertex="1">
          <mxGeometry x="890" y="643" width="50" height="30" as="geometry" />
        </mxCell>
        <mxCell id="TzTqIZtNaXJvueZtooWY-8" value="IP" style="text;html=1;align=center;verticalAlign=middle;resizable=0;points=[];autosize=1;strokeColor=none;fillColor=none;" parent="1" vertex="1">
          <mxGeometry x="910" y="628" width="30" height="30" as="geometry" />
        </mxCell>
        <mxCell id="TzTqIZtNaXJvueZtooWY-9" value="Tipo" style="text;html=1;align=center;verticalAlign=middle;resizable=0;points=[];autosize=1;strokeColor=none;fillColor=none;" parent="1" vertex="1">
          <mxGeometry x="1360" y="701" width="50" height="30" as="geometry" />
        </mxCell>
        <mxCell id="TzTqIZtNaXJvueZtooWY-14" value="Tipo" style="text;html=1;align=center;verticalAlign=middle;resizable=0;points=[];autosize=1;strokeColor=none;fillColor=none;" parent="1" vertex="1">
          <mxGeometry x="1324" y="308" width="50" height="30" as="geometry" />
        </mxCell>
        <mxCell id="TzTqIZtNaXJvueZtooWY-16" value="(0,n)" style="text;html=1;align=center;verticalAlign=middle;resizable=0;points=[];autosize=1;strokeColor=none;fillColor=none;" parent="1" vertex="1">
          <mxGeometry x="1344" y="204.5" width="50" height="30" as="geometry" />
        </mxCell>
        <mxCell id="TzTqIZtNaXJvueZtooWY-19" value="Download" style="text;html=1;align=center;verticalAlign=middle;resizable=0;points=[];autosize=1;strokeColor=none;fillColor=none;" parent="1" vertex="1">
          <mxGeometry x="1514" y="216.5" width="80" height="30" as="geometry" />
        </mxCell>
        <mxCell id="TzTqIZtNaXJvueZtooWY-22" value="MaxConnessioni" style="text;html=1;align=center;verticalAlign=middle;resizable=0;points=[];autosize=1;strokeColor=none;fillColor=none;" parent="1" vertex="1">
          <mxGeometry x="1514" y="235.75" width="120" height="24" as="geometry" />
        </mxCell>
        <mxCell id="TzTqIZtNaXJvueZtooWY-27" value="MaxGb" style="text;html=1;align=center;verticalAlign=middle;resizable=0;points=[];autosize=1;strokeColor=none;fillColor=none;" parent="1" vertex="1">
          <mxGeometry x="1534" y="279" width="60" height="24" as="geometry" />
        </mxCell>
        <mxCell id="TzTqIZtNaXJvueZtooWY-39" value="(0,1)" style="text;html=1;align=center;verticalAlign=middle;resizable=0;points=[];autosize=1;strokeColor=none;fillColor=none;" parent="1" vertex="1">
          <mxGeometry x="1458" y="276" width="50" height="30" as="geometry" />
        </mxCell>
        <mxCell id="TzTqIZtNaXJvueZtooWY-41" value="Durata" style="text;html=1;align=center;verticalAlign=middle;resizable=0;points=[];autosize=1;strokeColor=none;fillColor=none;" parent="1" vertex="1">
          <mxGeometry x="1355" y="310.5" width="60" height="30" as="geometry" />
        </mxCell>
        <mxCell id="TzTqIZtNaXJvueZtooWY-47" value="Tariffa Mensile" style="text;html=1;align=center;verticalAlign=middle;resizable=0;points=[];autosize=1;strokeColor=none;fillColor=none;" parent="1" vertex="1">
          <mxGeometry x="1514" y="251.5" width="100" height="30" as="geometry" />
        </mxCell>
        <mxCell id="TzTqIZtNaXJvueZtooWY-54" value="Data Emissione" style="text;html=1;align=center;verticalAlign=middle;resizable=0;points=[];autosize=1;strokeColor=none;fillColor=none;" parent="1" vertex="1">
          <mxGeometry x="1504" y="580" width="110" height="30" as="geometry" />
        </mxCell>
        <mxCell id="TzTqIZtNaXJvueZtooWY-56" value="Tariffa" style="text;html=1;align=center;verticalAlign=middle;resizable=0;points=[];autosize=1;strokeColor=none;fillColor=none;" parent="1" vertex="1">
          <mxGeometry x="1583" y="528" width="60" height="30" as="geometry" />
        </mxCell>
        <mxCell id="TzTqIZtNaXJvueZtooWY-60" value="Data" style="text;html=1;align=center;verticalAlign=middle;resizable=0;points=[];autosize=1;strokeColor=none;fillColor=none;rotation=0;" parent="1" vertex="1">
          <mxGeometry x="1301" y="510.5" width="50" height="30" as="geometry" />
        </mxCell>
        <mxCell id="TzTqIZtNaXJvueZtooWY-62" value="Inizio Abbonamento" style="text;html=1;align=center;verticalAlign=middle;resizable=0;points=[];autosize=1;strokeColor=none;fillColor=none;" parent="1" vertex="1">
          <mxGeometry x="1135" y="299.5" width="130" height="30" as="geometry" />
        </mxCell>
        <mxCell id="TzTqIZtNaXJvueZtooWY-67" value="Scadenza" style="text;html=1;align=center;verticalAlign=middle;resizable=0;points=[];autosize=1;strokeColor=none;fillColor=none;" parent="1" vertex="1">
          <mxGeometry x="1428" y="586" width="84" height="24" as="geometry" />
        </mxCell>
        <mxCell id="twbjdaluW3R16mWwh6AZ-3" style="edgeStyle=orthogonalEdgeStyle;rounded=0;orthogonalLoop=1;jettySize=auto;html=1;entryX=0.881;entryY=0.987;entryDx=0;entryDy=0;entryPerimeter=0;endArrow=none;endFill=0;" parent="1" source="twbjdaluW3R16mWwh6AZ-2" target="CA8DIJyEQ-BG8HpjzGWb-37" edge="1">
          <mxGeometry relative="1" as="geometry">
            <Array as="points">
              <mxPoint x="1189" y="504" />
              <mxPoint x="1093" y="504" />
            </Array>
          </mxGeometry>
        </mxCell>
        <mxCell id="twbjdaluW3R16mWwh6AZ-2" value="UtenteFattura" style="rhombus;whiteSpace=wrap;html=1;fillColor=#f8cecc;strokeColor=#b85450;" parent="1" vertex="1">
          <mxGeometry x="1143" y="505" width="92" height="56" as="geometry" />
        </mxCell>
        <mxCell id="twbjdaluW3R16mWwh6AZ-4" value="(0,1)" style="text;html=1;align=center;verticalAlign=middle;resizable=0;points=[];autosize=1;strokeColor=none;fillColor=none;" parent="1" vertex="1">
          <mxGeometry x="1416" y="483" width="48" height="24" as="geometry" />
        </mxCell>
        <mxCell id="twbjdaluW3R16mWwh6AZ-5" value="(0,n)" style="text;html=1;align=center;verticalAlign=middle;resizable=0;points=[];autosize=1;strokeColor=none;fillColor=none;" parent="1" vertex="1">
          <mxGeometry x="1092" y="416" width="48" height="24" as="geometry" />
        </mxCell>
        <mxCell id="twbjdaluW3R16mWwh6AZ-10" value="Numero Carta" style="text;html=1;align=center;verticalAlign=middle;resizable=0;points=[];autosize=1;strokeColor=none;fillColor=none;" parent="1" vertex="1">
          <mxGeometry x="1251" y="326.75" width="96" height="24" as="geometry" />
        </mxCell>
        <mxCell id="twbjdaluW3R16mWwh6AZ-14" value="Scadenza" style="text;html=1;align=center;verticalAlign=middle;resizable=0;points=[];autosize=1;strokeColor=none;fillColor=none;" parent="1" vertex="1">
          <mxGeometry x="1218" y="416" width="84" height="24" as="geometry" />
        </mxCell>
        <mxCell id="twbjdaluW3R16mWwh6AZ-19" value="Inizio" style="text;html=1;align=center;verticalAlign=middle;resizable=0;points=[];autosize=1;strokeColor=none;fillColor=none;" parent="1" vertex="1">
          <mxGeometry x="1092.5" y="837" width="60" height="24" as="geometry" />
        </mxCell>
        <mxCell id="twbjdaluW3R16mWwh6AZ-21" value="Fine" style="text;html=1;align=center;verticalAlign=middle;resizable=0;points=[];autosize=1;strokeColor=none;fillColor=none;" parent="1" vertex="1">
          <mxGeometry x="1098.5" y="861" width="48" height="24" as="geometry" />
        </mxCell>
        <mxCell id="twbjdaluW3R16mWwh6AZ-28" value="" style="edgeStyle=none;orthogonalLoop=1;jettySize=auto;html=1;rounded=0;endArrow=oval;endFill=1;" parent="1" edge="1">
          <mxGeometry width="100" relative="1" as="geometry">
            <mxPoint x="1090" y="865" as="sourcePoint" />
            <mxPoint x="994" y="829" as="targetPoint" />
            <Array as="points">
              <mxPoint x="1090" y="829" />
              <mxPoint x="1042" y="829" />
            </Array>
          </mxGeometry>
        </mxCell>
        <mxCell id="twbjdaluW3R16mWwh6AZ-30" value="Longitudine" style="text;html=1;align=center;verticalAlign=middle;resizable=0;points=[];autosize=1;strokeColor=none;fillColor=none;" parent="1" vertex="1">
          <mxGeometry x="1111.5" y="1041" width="96" height="24" as="geometry" />
        </mxCell>
        <mxCell id="twbjdaluW3R16mWwh6AZ-32" value="Identificatore" style="text;html=1;align=center;verticalAlign=middle;resizable=0;points=[];autosize=1;strokeColor=none;fillColor=none;" parent="1" vertex="1">
          <mxGeometry x="1116" y="1058" width="96" height="24" as="geometry" />
        </mxCell>
        <mxCell id="twbjdaluW3R16mWwh6AZ-35" value="Larghezza di Banda" style="text;html=1;align=center;verticalAlign=middle;resizable=0;points=[];autosize=1;strokeColor=none;fillColor=none;" parent="1" vertex="1">
          <mxGeometry x="1119" y="1073" width="132" height="24" as="geometry" />
        </mxCell>
        <mxCell id="twbjdaluW3R16mWwh6AZ-39" value="&lt;b&gt;&lt;font color=&quot;#ff6666&quot;&gt;Banda attuale&lt;/font&gt;&lt;/b&gt;" style="text;html=1;align=center;verticalAlign=middle;resizable=0;points=[];autosize=1;strokeColor=none;fillColor=none;" parent="1" vertex="1">
          <mxGeometry x="827.75" y="1048" width="108" height="24" as="geometry" />
        </mxCell>
        <mxCell id="nLwUZ7-GpoZsQczw0JLD-2" value="Codifica Video" style="rhombus;whiteSpace=wrap;html=1;fillColor=#d5e8d4;strokeColor=#82b366;" parent="1" vertex="1">
          <mxGeometry x="310" y="95" width="96" height="56" as="geometry" />
        </mxCell>
        <mxCell id="nLwUZ7-GpoZsQczw0JLD-3" style="edgeStyle=orthogonalEdgeStyle;rounded=0;orthogonalLoop=1;jettySize=auto;html=1;entryX=0.162;entryY=0.031;entryDx=0;entryDy=0;entryPerimeter=0;endArrow=none;endFill=0;" parent="1" source="nLwUZ7-GpoZsQczw0JLD-2" target="CA8DIJyEQ-BG8HpjzGWb-14" edge="1">
          <mxGeometry relative="1" as="geometry">
            <Array as="points">
              <mxPoint x="443" y="123" />
            </Array>
          </mxGeometry>
        </mxCell>
        <mxCell id="nLwUZ7-GpoZsQczw0JLD-5" value="Codifica audio" style="rhombus;whiteSpace=wrap;html=1;fillColor=#d5e8d4;strokeColor=#82b366;" parent="1" vertex="1">
          <mxGeometry x="295" y="194.25" width="87" height="52.5" as="geometry" />
        </mxCell>
        <mxCell id="nLwUZ7-GpoZsQczw0JLD-6" style="edgeStyle=orthogonalEdgeStyle;rounded=0;orthogonalLoop=1;jettySize=auto;html=1;entryX=0.003;entryY=0.863;entryDx=0;entryDy=0;entryPerimeter=0;endArrow=none;endFill=0;" parent="1" source="nLwUZ7-GpoZsQczw0JLD-5" target="CA8DIJyEQ-BG8HpjzGWb-14" edge="1">
          <mxGeometry relative="1" as="geometry">
            <Array as="points">
              <mxPoint x="402" y="221" />
              <mxPoint x="402" y="215" />
            </Array>
          </mxGeometry>
        </mxCell>
        <mxCell id="nLwUZ7-GpoZsQczw0JLD-7" value="(1,1)" style="text;html=1;align=center;verticalAlign=middle;resizable=0;points=[];autosize=1;strokeColor=none;fillColor=none;" parent="1" vertex="1">
          <mxGeometry x="431.25" y="140.5" width="48" height="24" as="geometry" />
        </mxCell>
        <mxCell id="nLwUZ7-GpoZsQczw0JLD-8" value="(1,1)" style="text;html=1;align=center;verticalAlign=middle;resizable=0;points=[];autosize=1;strokeColor=none;fillColor=none;" parent="1" vertex="1">
          <mxGeometry x="383.25" y="188.5" width="48" height="24" as="geometry" />
        </mxCell>
        <mxCell id="nLwUZ7-GpoZsQczw0JLD-9" value="(0,n)" style="text;html=1;align=center;verticalAlign=middle;resizable=0;points=[];autosize=1;strokeColor=none;fillColor=none;" parent="1" vertex="1">
          <mxGeometry x="210" y="196" width="48" height="24" as="geometry" />
        </mxCell>
        <mxCell id="nLwUZ7-GpoZsQczw0JLD-10" value="(0,n)" style="text;html=1;align=center;verticalAlign=middle;resizable=0;points=[];autosize=1;strokeColor=none;fillColor=none;" parent="1" vertex="1">
          <mxGeometry x="210" y="100" width="48" height="24" as="geometry" />
        </mxCell>
        <mxCell id="nLwUZ7-GpoZsQczw0JLD-12" value="Codice" style="text;html=1;align=center;verticalAlign=middle;resizable=0;points=[];autosize=1;strokeColor=none;fillColor=none;" parent="1" vertex="1">
          <mxGeometry x="30" y="87" width="60" height="24" as="geometry" />
        </mxCell>
        <mxCell id="nLwUZ7-GpoZsQczw0JLD-16" value="Qualità" style="text;html=1;align=center;verticalAlign=middle;resizable=0;points=[];autosize=1;strokeColor=none;fillColor=none;" parent="1" vertex="1">
          <mxGeometry x="30" y="114.5" width="60" height="24" as="geometry" />
        </mxCell>
        <mxCell id="nLwUZ7-GpoZsQczw0JLD-22" value="AspectRatio" style="text;html=1;align=center;verticalAlign=middle;resizable=0;points=[];autosize=1;strokeColor=none;fillColor=none;" parent="1" vertex="1">
          <mxGeometry x="244" y="134" width="96" height="24" as="geometry" />
        </mxCell>
        <mxCell id="nLwUZ7-GpoZsQczw0JLD-24" value="Famiglia" style="text;html=1;align=center;verticalAlign=middle;resizable=0;points=[];autosize=1;strokeColor=none;fillColor=none;" parent="1" vertex="1">
          <mxGeometry x="244" y="79" width="72" height="24" as="geometry" />
        </mxCell>
        <mxCell id="nLwUZ7-GpoZsQczw0JLD-25" style="edgeStyle=orthogonalEdgeStyle;rounded=0;orthogonalLoop=1;jettySize=auto;html=1;entryX=0.017;entryY=0.617;entryDx=0;entryDy=0;entryPerimeter=0;exitX=1.001;exitY=0.139;exitDx=0;exitDy=0;exitPerimeter=0;endArrow=oval;endFill=0;" parent="1" source="CA8DIJyEQ-BG8HpjzGWb-22" target="nLwUZ7-GpoZsQczw0JLD-24" edge="1">
          <mxGeometry relative="1" as="geometry">
            <Array as="points">
              <mxPoint x="223" y="94" />
            </Array>
          </mxGeometry>
        </mxCell>
        <mxCell id="nLwUZ7-GpoZsQczw0JLD-27" value="Codice" style="text;html=1;align=center;verticalAlign=middle;resizable=0;points=[];autosize=1;strokeColor=none;fillColor=none;" parent="1" vertex="1">
          <mxGeometry x="24" y="174.25" width="60" height="24" as="geometry" />
        </mxCell>
        <mxCell id="nLwUZ7-GpoZsQczw0JLD-30" value="BitRate" style="text;html=1;align=center;verticalAlign=middle;resizable=0;points=[];autosize=1;strokeColor=none;fillColor=none;" parent="1" vertex="1">
          <mxGeometry x="20" y="193" width="72" height="24" as="geometry" />
        </mxCell>
        <mxCell id="nLwUZ7-GpoZsQczw0JLD-34" style="edgeStyle=orthogonalEdgeStyle;rounded=0;orthogonalLoop=1;jettySize=auto;html=1;entryX=0.989;entryY=0.6;entryDx=0;entryDy=0;entryPerimeter=0;exitX=0.008;exitY=0.345;exitDx=0;exitDy=0;exitPerimeter=0;endArrow=oval;endFill=0;" parent="1" source="CA8DIJyEQ-BG8HpjzGWb-15" target="nLwUZ7-GpoZsQczw0JLD-30" edge="1">
          <mxGeometry relative="1" as="geometry" />
        </mxCell>
        <mxCell id="nLwUZ7-GpoZsQczw0JLD-35" value="Qualità" style="text;html=1;align=center;verticalAlign=middle;resizable=0;points=[];autosize=1;strokeColor=none;fillColor=none;" parent="1" vertex="1">
          <mxGeometry x="26" y="212.5" width="60" height="24" as="geometry" />
        </mxCell>
        <mxCell id="nLwUZ7-GpoZsQczw0JLD-36" style="edgeStyle=orthogonalEdgeStyle;rounded=0;orthogonalLoop=1;jettySize=auto;html=1;entryX=1.04;entryY=0.504;entryDx=0;entryDy=0;entryPerimeter=0;exitX=-0.007;exitY=0.581;exitDx=0;exitDy=0;exitPerimeter=0;endArrow=oval;endFill=0;" parent="1" source="CA8DIJyEQ-BG8HpjzGWb-15" target="nLwUZ7-GpoZsQczw0JLD-35" edge="1">
          <mxGeometry relative="1" as="geometry" />
        </mxCell>
        <mxCell id="nLwUZ7-GpoZsQczw0JLD-41" value="Famiglia" style="text;html=1;align=center;verticalAlign=middle;resizable=0;points=[];autosize=1;strokeColor=none;fillColor=none;" parent="1" vertex="1">
          <mxGeometry x="244" y="232" width="72" height="24" as="geometry" />
        </mxCell>
        <mxCell id="nLwUZ7-GpoZsQczw0JLD-44" value="Codice" style="text;html=1;align=center;verticalAlign=middle;resizable=0;points=[];autosize=1;strokeColor=none;fillColor=none;" parent="1" vertex="1">
          <mxGeometry x="445.75" y="98.5" width="60" height="24" as="geometry" />
        </mxCell>
        <mxCell id="nLwUZ7-GpoZsQczw0JLD-46" value="Lunghezza" style="text;html=1;align=center;verticalAlign=middle;resizable=0;points=[];autosize=1;strokeColor=none;fillColor=none;" parent="1" vertex="1">
          <mxGeometry x="485.5" y="98.5" width="84" height="24" as="geometry" />
        </mxCell>
        <mxCell id="nLwUZ7-GpoZsQczw0JLD-48" value="Dimensione" style="text;html=1;align=center;verticalAlign=middle;resizable=0;points=[];autosize=1;strokeColor=none;fillColor=none;" parent="1" vertex="1">
          <mxGeometry x="490.38" y="248" width="96" height="24" as="geometry" />
        </mxCell>
        <mxCell id="nLwUZ7-GpoZsQczw0JLD-54" style="edgeStyle=orthogonalEdgeStyle;rounded=0;orthogonalLoop=1;jettySize=auto;html=1;endArrow=none;endFill=0;" parent="1" source="nLwUZ7-GpoZsQczw0JLD-51" edge="1">
          <mxGeometry relative="1" as="geometry">
            <mxPoint x="766" y="195" as="targetPoint" />
          </mxGeometry>
        </mxCell>
        <mxCell id="nLwUZ7-GpoZsQczw0JLD-51" value="Audio" style="rhombus;whiteSpace=wrap;html=1;fillColor=#d5e8d4;strokeColor=#82b366;" parent="1" vertex="1">
          <mxGeometry x="635" y="138.5" width="80" height="53.25" as="geometry" />
        </mxCell>
        <mxCell id="nLwUZ7-GpoZsQczw0JLD-53" value="Sottotitolo" style="rhombus;whiteSpace=wrap;html=1;fillColor=#d5e8d4;strokeColor=#82b366;" parent="1" vertex="1">
          <mxGeometry x="635" y="197.5" width="80" height="44" as="geometry" />
        </mxCell>
        <mxCell id="nLwUZ7-GpoZsQczw0JLD-89" style="edgeStyle=orthogonalEdgeStyle;rounded=0;orthogonalLoop=1;jettySize=auto;html=1;endArrow=oval;endFill=1;" parent="1" source="nLwUZ7-GpoZsQczw0JLD-55" edge="1">
          <mxGeometry relative="1" as="geometry">
            <mxPoint x="802" y="135" as="targetPoint" />
          </mxGeometry>
        </mxCell>
        <mxCell id="nLwUZ7-GpoZsQczw0JLD-55" value="Lingua" style="whiteSpace=wrap;html=1;fillColor=#d5e8d4;strokeColor=#82b366;" parent="1" vertex="1">
          <mxGeometry x="742" y="170.5" width="120" height="60" as="geometry" />
        </mxCell>
        <mxCell id="nLwUZ7-GpoZsQczw0JLD-57" value="(0,n)" style="text;html=1;align=center;verticalAlign=middle;resizable=0;points=[];autosize=1;strokeColor=none;fillColor=none;" parent="1" vertex="1">
          <mxGeometry x="732" y="146.5" width="48" height="24" as="geometry" />
        </mxCell>
        <mxCell id="nLwUZ7-GpoZsQczw0JLD-59" value="(0,n)" style="text;html=1;align=center;verticalAlign=middle;resizable=0;points=[];autosize=1;strokeColor=none;fillColor=none;" parent="1" vertex="1">
          <mxGeometry x="706" y="197.5" width="48" height="24" as="geometry" />
        </mxCell>
        <mxCell id="nLwUZ7-GpoZsQczw0JLD-60" value="(0,n)" style="text;html=1;align=center;verticalAlign=middle;resizable=0;points=[];autosize=1;strokeColor=none;fillColor=none;" parent="1" vertex="1">
          <mxGeometry x="555" y="193" width="48" height="24" as="geometry" />
        </mxCell>
        <mxCell id="nLwUZ7-GpoZsQczw0JLD-61" value="(1,n)" style="text;html=1;align=center;verticalAlign=middle;resizable=0;points=[];autosize=1;strokeColor=none;fillColor=none;" parent="1" vertex="1">
          <mxGeometry x="558" y="148" width="48" height="24" as="geometry" />
        </mxCell>
        <mxCell id="nLwUZ7-GpoZsQczw0JLD-63" style="edgeStyle=orthogonalEdgeStyle;rounded=0;orthogonalLoop=1;jettySize=auto;html=1;" parent="1" source="nLwUZ7-GpoZsQczw0JLD-62" edge="1">
          <mxGeometry relative="1" as="geometry">
            <mxPoint x="562" y="612.9999999999999" as="targetPoint" />
          </mxGeometry>
        </mxCell>
        <mxCell id="nLwUZ7-GpoZsQczw0JLD-81" style="edgeStyle=orthogonalEdgeStyle;rounded=0;orthogonalLoop=1;jettySize=auto;html=1;endArrow=oval;endFill=0;" parent="1" source="nLwUZ7-GpoZsQczw0JLD-62" edge="1">
          <mxGeometry relative="1" as="geometry">
            <mxPoint x="754" y="697" as="targetPoint" />
            <Array as="points">
              <mxPoint x="750" y="697" />
              <mxPoint x="750" y="698" />
              <mxPoint x="754" y="698" />
            </Array>
          </mxGeometry>
        </mxCell>
        <mxCell id="nLwUZ7-GpoZsQczw0JLD-62" value="Critico" style="whiteSpace=wrap;html=1;fillColor=#fff2cc;strokeColor=#d6b656;" parent="1" vertex="1">
          <mxGeometry x="610" y="653" width="120" height="48" as="geometry" />
        </mxCell>
        <mxCell id="nLwUZ7-GpoZsQczw0JLD-66" value="Recensione" style="rhombus;whiteSpace=wrap;html=1;fillColor=#fff2cc;strokeColor=#d6b656;" parent="1" vertex="1">
          <mxGeometry x="523.75" y="574" width="80" height="56" as="geometry" />
        </mxCell>
        <mxCell id="nLwUZ7-GpoZsQczw0JLD-67" style="edgeStyle=orthogonalEdgeStyle;rounded=0;orthogonalLoop=1;jettySize=auto;html=1;entryX=0.834;entryY=0.986;entryDx=0;entryDy=0;entryPerimeter=0;endArrow=none;endFill=0;" parent="1" source="nLwUZ7-GpoZsQczw0JLD-66" target="Hz8rqVoHaeQYQRgCHm7I-1" edge="1">
          <mxGeometry relative="1" as="geometry" />
        </mxCell>
        <mxCell id="nLwUZ7-GpoZsQczw0JLD-68" value="(0,n)" style="text;html=1;align=center;verticalAlign=middle;resizable=0;points=[];autosize=1;strokeColor=none;fillColor=none;" parent="1" vertex="1">
          <mxGeometry x="514.38" y="529" width="48" height="24" as="geometry" />
        </mxCell>
        <mxCell id="nLwUZ7-GpoZsQczw0JLD-69" value="(1,n)" style="text;html=1;align=center;verticalAlign=middle;resizable=0;points=[];autosize=1;strokeColor=none;fillColor=none;" parent="1" vertex="1">
          <mxGeometry x="569.5" y="653" width="48" height="24" as="geometry" />
        </mxCell>
        <mxCell id="nLwUZ7-GpoZsQczw0JLD-72" value="Codice" style="text;html=1;align=center;verticalAlign=middle;resizable=0;points=[];autosize=1;strokeColor=none;fillColor=none;" parent="1" vertex="1">
          <mxGeometry x="754" y="653" width="60" height="24" as="geometry" />
        </mxCell>
        <mxCell id="nLwUZ7-GpoZsQczw0JLD-73" style="edgeStyle=orthogonalEdgeStyle;rounded=0;orthogonalLoop=1;jettySize=auto;html=1;entryX=0.014;entryY=0.528;entryDx=0;entryDy=0;entryPerimeter=0;endArrow=oval;endFill=1;" parent="1" source="nLwUZ7-GpoZsQczw0JLD-62" target="nLwUZ7-GpoZsQczw0JLD-72" edge="1">
          <mxGeometry relative="1" as="geometry">
            <Array as="points">
              <mxPoint x="755" y="663" />
            </Array>
          </mxGeometry>
        </mxCell>
        <mxCell id="nLwUZ7-GpoZsQczw0JLD-78" value="Nome" style="text;html=1;align=center;verticalAlign=middle;resizable=0;points=[];autosize=1;strokeColor=none;fillColor=none;" parent="1" vertex="1">
          <mxGeometry x="755" y="669" width="60" height="24" as="geometry" />
        </mxCell>
        <mxCell id="nLwUZ7-GpoZsQczw0JLD-80" style="edgeStyle=orthogonalEdgeStyle;rounded=0;orthogonalLoop=1;jettySize=auto;html=1;entryX=0.017;entryY=0.595;entryDx=0;entryDy=0;entryPerimeter=0;endArrow=oval;endFill=0;" parent="1" source="nLwUZ7-GpoZsQczw0JLD-62" target="nLwUZ7-GpoZsQczw0JLD-78" edge="1">
          <mxGeometry relative="1" as="geometry">
            <Array as="points">
              <mxPoint x="755" y="683" />
            </Array>
          </mxGeometry>
        </mxCell>
        <mxCell id="nLwUZ7-GpoZsQczw0JLD-82" value="Cognome" style="text;html=1;align=center;verticalAlign=middle;resizable=0;points=[];autosize=1;strokeColor=none;fillColor=none;" parent="1" vertex="1">
          <mxGeometry x="742" y="687" width="84" height="24" as="geometry" />
        </mxCell>
        <mxCell id="nLwUZ7-GpoZsQczw0JLD-85" style="edgeStyle=orthogonalEdgeStyle;rounded=0;orthogonalLoop=1;jettySize=auto;html=1;entryX=0.474;entryY=1.038;entryDx=0;entryDy=0;entryPerimeter=0;exitX=1;exitY=0.5;exitDx=0;exitDy=0;endArrow=oval;endFill=0;" parent="1" source="nLwUZ7-GpoZsQczw0JLD-66" edge="1">
          <mxGeometry relative="1" as="geometry">
            <mxPoint x="650.19" y="598.9119999999999" as="targetPoint" />
            <Array as="points">
              <mxPoint x="650" y="602" />
            </Array>
          </mxGeometry>
        </mxCell>
        <mxCell id="nLwUZ7-GpoZsQczw0JLD-86" value="Data" style="text;html=1;align=center;verticalAlign=middle;resizable=0;points=[];autosize=1;strokeColor=none;fillColor=none;" parent="1" vertex="1">
          <mxGeometry x="610" y="569" width="48" height="24" as="geometry" />
        </mxCell>
        <mxCell id="nLwUZ7-GpoZsQczw0JLD-87" value="Valore" style="text;html=1;align=center;verticalAlign=middle;resizable=0;points=[];autosize=1;strokeColor=none;fillColor=none;" parent="1" vertex="1">
          <mxGeometry x="640" y="586" width="60" height="24" as="geometry" />
        </mxCell>
        <mxCell id="nLwUZ7-GpoZsQczw0JLD-88" style="edgeStyle=orthogonalEdgeStyle;rounded=0;orthogonalLoop=1;jettySize=auto;html=1;entryX=0.033;entryY=0.805;entryDx=0;entryDy=0;entryPerimeter=0;exitX=1;exitY=0;exitDx=0;exitDy=0;endArrow=oval;endFill=0;" parent="1" target="nLwUZ7-GpoZsQczw0JLD-86" edge="1">
          <mxGeometry relative="1" as="geometry">
            <mxPoint x="582.75" y="589" as="sourcePoint" />
            <mxPoint x="594.5899999999997" y="571.904" as="targetPoint" />
          </mxGeometry>
        </mxCell>
        <mxCell id="nLwUZ7-GpoZsQczw0JLD-90" value="Nome" style="text;html=1;align=center;verticalAlign=middle;resizable=0;points=[];autosize=1;strokeColor=none;fillColor=none;" parent="1" vertex="1">
          <mxGeometry x="775" y="114.5" width="60" height="24" as="geometry" />
        </mxCell>
        <mxCell id="nLwUZ7-GpoZsQczw0JLD-98" style="edgeStyle=orthogonalEdgeStyle;rounded=0;orthogonalLoop=1;jettySize=auto;html=1;endArrow=oval;endFill=0;" parent="1" edge="1">
          <mxGeometry relative="1" as="geometry">
            <mxPoint x="1533" y="553" as="sourcePoint" />
            <mxPoint x="1533" y="580" as="targetPoint" />
          </mxGeometry>
        </mxCell>
        <mxCell id="nLwUZ7-GpoZsQczw0JLD-101" value="Latitudine" style="text;html=1;align=center;verticalAlign=middle;resizable=0;points=[];autosize=1;strokeColor=none;fillColor=none;" parent="1" vertex="1">
          <mxGeometry x="839.75" y="1073" width="84" height="24" as="geometry" />
        </mxCell>
        <mxCell id="nLwUZ7-GpoZsQczw0JLD-105" style="edgeStyle=orthogonalEdgeStyle;rounded=0;orthogonalLoop=1;jettySize=auto;html=1;endArrow=none;endFill=0;" parent="1" source="nLwUZ7-GpoZsQczw0JLD-103" edge="1">
          <mxGeometry relative="1" as="geometry">
            <mxPoint x="214" y="469" as="targetPoint" />
          </mxGeometry>
        </mxCell>
        <mxCell id="nLwUZ7-GpoZsQczw0JLD-103" value="Appartenenza" style="rhombus;whiteSpace=wrap;html=1;fillColor=#fff2cc;strokeColor=#d6b656;" parent="1" vertex="1">
          <mxGeometry x="250" y="383" width="88" height="50" as="geometry" />
        </mxCell>
        <mxCell id="nLwUZ7-GpoZsQczw0JLD-109" style="edgeStyle=orthogonalEdgeStyle;rounded=0;orthogonalLoop=1;jettySize=auto;html=1;endArrow=oval;endFill=1;" parent="1" source="nLwUZ7-GpoZsQczw0JLD-106" edge="1">
          <mxGeometry relative="1" as="geometry">
            <mxPoint x="214" y="529" as="targetPoint" />
          </mxGeometry>
        </mxCell>
        <mxCell id="nLwUZ7-GpoZsQczw0JLD-106" value="Genere" style="whiteSpace=wrap;html=1;fillColor=#fff2cc;strokeColor=#d6b656;" parent="1" vertex="1">
          <mxGeometry x="154" y="465" width="120" height="36" as="geometry" />
        </mxCell>
        <mxCell id="nLwUZ7-GpoZsQczw0JLD-110" value="Nome" style="text;html=1;align=center;verticalAlign=middle;resizable=0;points=[];autosize=1;strokeColor=none;fillColor=none;" parent="1" vertex="1">
          <mxGeometry x="184" y="531" width="60" height="24" as="geometry" />
        </mxCell>
        <mxCell id="nLwUZ7-GpoZsQczw0JLD-112" value="(1,n)" style="text;html=1;align=center;verticalAlign=middle;resizable=0;points=[];autosize=1;strokeColor=none;fillColor=none;" parent="1" vertex="1">
          <mxGeometry x="420" y="451" width="48" height="24" as="geometry" />
        </mxCell>
        <mxCell id="nLwUZ7-GpoZsQczw0JLD-113" value="(0,n)" style="text;html=1;align=center;verticalAlign=middle;resizable=0;points=[];autosize=1;strokeColor=none;fillColor=none;" parent="1" vertex="1">
          <mxGeometry x="202" y="441.5" width="48" height="24" as="geometry" />
        </mxCell>
        <mxCell id="nLwUZ7-GpoZsQczw0JLD-136" value="(0,n)" style="text;html=1;align=center;verticalAlign=middle;resizable=0;points=[];autosize=1;strokeColor=none;fillColor=none;" parent="1" vertex="1">
          <mxGeometry x="523.75" y="134" width="48" height="24" as="geometry" />
        </mxCell>
        <mxCell id="nLwUZ7-GpoZsQczw0JLD-138" style="edgeStyle=orthogonalEdgeStyle;rounded=0;orthogonalLoop=1;jettySize=auto;html=1;endArrow=none;endFill=0;entryX=0.023;entryY=-0.008;entryDx=0;entryDy=0;entryPerimeter=0;" parent="1" source="nLwUZ7-GpoZsQczw0JLD-137" target="nLwUZ7-GpoZsQczw0JLD-139" edge="1">
          <mxGeometry relative="1" as="geometry">
            <mxPoint x="1018" y="169.5" as="targetPoint" />
          </mxGeometry>
        </mxCell>
        <mxCell id="nLwUZ7-GpoZsQczw0JLD-137" value="Restrizione Formato" style="rhombus;whiteSpace=wrap;html=1;fillColor=#d5e8d4;strokeColor=#82b366;" parent="1" vertex="1">
          <mxGeometry x="895" y="82.5" width="80" height="56" as="geometry" />
        </mxCell>
        <mxCell id="nLwUZ7-GpoZsQczw0JLD-140" style="edgeStyle=orthogonalEdgeStyle;rounded=0;orthogonalLoop=1;jettySize=auto;html=1;endArrow=oval;endFill=1;" parent="1" source="nLwUZ7-GpoZsQczw0JLD-139" edge="1">
          <mxGeometry relative="1" as="geometry">
            <mxPoint x="1126" y="217" as="targetPoint" />
            <Array as="points">
              <mxPoint x="1126" y="205" />
              <mxPoint x="1126" y="205" />
            </Array>
          </mxGeometry>
        </mxCell>
        <mxCell id="dw3qqJvHqkcLa-oPoZIX-5" style="edgeStyle=orthogonalEdgeStyle;rounded=0;orthogonalLoop=1;jettySize=auto;html=1;endArrow=oval;endFill=0;entryX=0.526;entryY=0.958;entryDx=0;entryDy=0;entryPerimeter=0;exitX=0.703;exitY=-0.008;exitDx=0;exitDy=0;exitPerimeter=0;" parent="1" source="nLwUZ7-GpoZsQczw0JLD-139" target="dw3qqJvHqkcLa-oPoZIX-6" edge="1">
          <mxGeometry relative="1" as="geometry">
            <mxPoint x="1080" y="113" as="targetPoint" />
          </mxGeometry>
        </mxCell>
        <mxCell id="dw3qqJvHqkcLa-oPoZIX-9" style="edgeStyle=orthogonalEdgeStyle;rounded=0;orthogonalLoop=1;jettySize=auto;html=1;exitX=0.163;exitY=0.008;exitDx=0;exitDy=0;exitPerimeter=0;endArrow=oval;endFill=0;" parent="1" source="nLwUZ7-GpoZsQczw0JLD-139" edge="1">
          <mxGeometry relative="1" as="geometry">
            <mxPoint x="1032" y="113" as="targetPoint" />
          </mxGeometry>
        </mxCell>
        <mxCell id="nLwUZ7-GpoZsQczw0JLD-139" value="Stato" style="whiteSpace=wrap;html=1;fillColor=#d5e8d4;strokeColor=#82b366;" parent="1" vertex="1">
          <mxGeometry x="1020" y="144" width="120" height="48" as="geometry" />
        </mxCell>
        <mxCell id="nLwUZ7-GpoZsQczw0JLD-142" value="Nome" style="text;html=1;align=center;verticalAlign=middle;resizable=0;points=[];autosize=1;strokeColor=none;fillColor=none;" parent="1" vertex="1">
          <mxGeometry x="1092" y="218" width="60" height="24" as="geometry" />
        </mxCell>
        <mxCell id="nLwUZ7-GpoZsQczw0JLD-143" value="(0,n)" style="text;html=1;align=center;verticalAlign=middle;resizable=0;points=[];autosize=1;strokeColor=none;fillColor=none;" parent="1" vertex="1">
          <mxGeometry x="984.5" y="122.5" width="48" height="24" as="geometry" />
        </mxCell>
        <mxCell id="nLwUZ7-GpoZsQczw0JLD-152" value="Id" style="text;html=1;align=center;verticalAlign=middle;resizable=0;points=[];autosize=1;strokeColor=none;fillColor=none;" parent="1" vertex="1">
          <mxGeometry x="1394" y="706" width="36" height="24" as="geometry" />
        </mxCell>
        <mxCell id="nLwUZ7-GpoZsQczw0JLD-161" style="edgeStyle=orthogonalEdgeStyle;rounded=0;orthogonalLoop=1;jettySize=auto;html=1;entryX=-0.085;entryY=0.429;entryDx=0;entryDy=0;entryPerimeter=0;endArrow=oval;endFill=0;" parent="1" source="CA8DIJyEQ-BG8HpjzGWb-42" target="X5VYXHr65bgpFRcitx1M-96" edge="1">
          <mxGeometry relative="1" as="geometry">
            <Array as="points">
              <mxPoint x="740" y="397" />
              <mxPoint x="780" y="397" />
            </Array>
          </mxGeometry>
        </mxCell>
        <mxCell id="nLwUZ7-GpoZsQczw0JLD-166" style="edgeStyle=orthogonalEdgeStyle;rounded=0;orthogonalLoop=1;jettySize=auto;html=1;endArrow=none;endFill=0;" parent="1" source="nLwUZ7-GpoZsQczw0JLD-163" edge="1">
          <mxGeometry relative="1" as="geometry">
            <mxPoint x="754" y="358.2499999999999" as="targetPoint" />
          </mxGeometry>
        </mxCell>
        <mxCell id="nLwUZ7-GpoZsQczw0JLD-163" value="Selezione" style="rhombus;whiteSpace=wrap;html=1;fillColor=#f8cecc;strokeColor=#b85450;" parent="1" vertex="1">
          <mxGeometry x="826" y="337" width="76.5" height="42.5" as="geometry" />
        </mxCell>
        <mxCell id="nLwUZ7-GpoZsQczw0JLD-170" style="edgeStyle=orthogonalEdgeStyle;rounded=0;orthogonalLoop=1;jettySize=auto;html=1;endArrow=oval;endFill=1;" parent="1" source="nLwUZ7-GpoZsQczw0JLD-167" edge="1">
          <mxGeometry relative="1" as="geometry">
            <mxPoint x="610" y="354.9999999999999" as="targetPoint" />
          </mxGeometry>
        </mxCell>
        <mxCell id="nLwUZ7-GpoZsQczw0JLD-167" value="Preferenza" style="whiteSpace=wrap;html=1;fillColor=#f8cecc;strokeColor=#b85450;" parent="1" vertex="1">
          <mxGeometry x="640" y="337" width="120" height="36" as="geometry" />
        </mxCell>
        <mxCell id="nLwUZ7-GpoZsQczw0JLD-168" value="(0,n)" style="text;html=1;align=center;verticalAlign=middle;resizable=0;points=[];autosize=1;strokeColor=none;fillColor=none;" parent="1" vertex="1">
          <mxGeometry x="930" y="362" width="48" height="24" as="geometry" />
        </mxCell>
        <mxCell id="nLwUZ7-GpoZsQczw0JLD-169" value="(0,n)" style="text;html=1;align=center;verticalAlign=middle;resizable=0;points=[];autosize=1;strokeColor=none;fillColor=none;" parent="1" vertex="1">
          <mxGeometry x="757" y="330.25" width="48" height="24" as="geometry" />
        </mxCell>
        <mxCell id="nLwUZ7-GpoZsQczw0JLD-171" value="Nome" style="text;html=1;align=center;verticalAlign=middle;resizable=0;points=[];autosize=1;strokeColor=none;fillColor=none;" parent="1" vertex="1">
          <mxGeometry x="558" y="343" width="60" height="24" as="geometry" />
        </mxCell>
        <mxCell id="nLwUZ7-GpoZsQczw0JLD-175" value="Restrizione&lt;br&gt;Abbonamento" style="rhombus;whiteSpace=wrap;html=1;fillColor=#f8cecc;strokeColor=#b85450;" parent="1" vertex="1">
          <mxGeometry x="1220" y="145" width="80" height="56" as="geometry" />
        </mxCell>
        <mxCell id="nLwUZ7-GpoZsQczw0JLD-176" style="edgeStyle=orthogonalEdgeStyle;rounded=0;orthogonalLoop=1;jettySize=auto;html=1;endArrow=none;endFill=0;" parent="1" source="nLwUZ7-GpoZsQczw0JLD-175" target="nLwUZ7-GpoZsQczw0JLD-139" edge="1">
          <mxGeometry relative="1" as="geometry" />
        </mxCell>
        <mxCell id="nLwUZ7-GpoZsQczw0JLD-177" value="(0,n)" style="text;html=1;align=center;verticalAlign=middle;resizable=0;points=[];autosize=1;strokeColor=none;fillColor=none;" parent="1" vertex="1">
          <mxGeometry x="1132" y="148" width="48" height="24" as="geometry" />
        </mxCell>
        <mxCell id="CHpEICkRL-nOFaAy0Jc8-10" value="" style="edgeStyle=none;orthogonalLoop=1;jettySize=auto;html=1;rounded=0;endArrow=oval;endFill=1;" parent="1" edge="1">
          <mxGeometry width="100" relative="1" as="geometry">
            <mxPoint x="1092" y="665" as="sourcePoint" />
            <mxPoint x="1056" y="617" as="targetPoint" />
            <Array as="points">
              <mxPoint x="1092" y="617" />
            </Array>
          </mxGeometry>
        </mxCell>
        <mxCell id="dw3qqJvHqkcLa-oPoZIX-2" value="IPinizio" style="text;html=1;align=center;verticalAlign=middle;resizable=0;points=[];autosize=1;strokeColor=none;fillColor=none;" parent="1" vertex="1">
          <mxGeometry x="1152.5" y="180.5" width="60" height="24" as="geometry" />
        </mxCell>
        <mxCell id="dw3qqJvHqkcLa-oPoZIX-4" value="IPfine" style="text;html=1;align=center;verticalAlign=middle;resizable=0;points=[];autosize=1;strokeColor=none;fillColor=none;" parent="1" vertex="1">
          <mxGeometry x="1135" y="114.5" width="60" height="24" as="geometry" />
        </mxCell>
        <mxCell id="dw3qqJvHqkcLa-oPoZIX-6" value="Latitudine" style="text;html=1;align=center;verticalAlign=middle;resizable=0;points=[];autosize=1;strokeColor=none;fillColor=none;" parent="1" vertex="1">
          <mxGeometry x="1059" y="89" width="84" height="24" as="geometry" />
        </mxCell>
        <mxCell id="dw3qqJvHqkcLa-oPoZIX-10" value="Longitudine" style="text;html=1;align=center;verticalAlign=middle;resizable=0;points=[];autosize=1;strokeColor=none;fillColor=none;" parent="1" vertex="1">
          <mxGeometry x="986.5" y="89" width="96" height="24" as="geometry" />
        </mxCell>
        <mxCell id="Thu5VVuTW2hiQ9AMxA9K-7" value="Data" style="text;html=1;align=center;verticalAlign=middle;resizable=0;points=[];autosize=1;strokeColor=none;fillColor=none;" parent="1" vertex="1">
          <mxGeometry x="652" y="386" width="48" height="24" as="geometry" />
        </mxCell>
        <mxCell id="Thu5VVuTW2hiQ9AMxA9K-9" value="Risoluzione" style="text;html=1;align=center;verticalAlign=middle;resizable=0;points=[];autosize=1;strokeColor=none;fillColor=none;" parent="1" vertex="1">
          <mxGeometry x="1426" y="706" width="84" height="24" as="geometry" />
        </mxCell>
        <mxCell id="Thu5VVuTW2hiQ9AMxA9K-11" value="DataRilascio" style="text;html=1;align=center;verticalAlign=middle;resizable=0;points=[];autosize=1;strokeColor=none;fillColor=none;" parent="1" vertex="1">
          <mxGeometry x="2" y="103" width="96" height="24" as="geometry" />
        </mxCell>
        <mxCell id="BWW44QWGzihYjBGcMJqT-3" value="(0,1)" style="text;html=1;align=center;verticalAlign=middle;resizable=0;points=[];autosize=1;strokeColor=none;fillColor=none;" parent="1" vertex="1">
          <mxGeometry x="1462" y="242" width="48" height="24" as="geometry" />
        </mxCell>
        <mxCell id="1RV6FaYA8MGQ1uC4E3W5-9" style="edgeStyle=orthogonalEdgeStyle;rounded=0;orthogonalLoop=1;jettySize=auto;html=1;exitX=1;exitY=0;exitDx=0;exitDy=0;endArrow=oval;endFill=0;" parent="1" edge="1">
          <mxGeometry relative="1" as="geometry">
            <mxPoint x="1464" y="197.96" as="targetPoint" />
            <mxPoint x="1462.442882405407" y="226.4989362551474" as="sourcePoint" />
          </mxGeometry>
        </mxCell>
        <mxCell id="bv49dqIHhwxNIkvWS3FY-6" style="edgeStyle=orthogonalEdgeStyle;rounded=0;orthogonalLoop=1;jettySize=auto;html=1;endArrow=oval;endFill=0;" parent="1" target="dw3qqJvHqkcLa-oPoZIX-4" edge="1">
          <mxGeometry relative="1" as="geometry">
            <Array as="points">
              <mxPoint x="1153" y="150.5" />
              <mxPoint x="1153" y="150.5" />
            </Array>
            <mxPoint x="1141" y="150.5" as="sourcePoint" />
          </mxGeometry>
        </mxCell>
        <mxCell id="bv49dqIHhwxNIkvWS3FY-7" style="edgeStyle=orthogonalEdgeStyle;rounded=0;orthogonalLoop=1;jettySize=auto;html=1;endArrow=oval;endFill=0;exitX=1;exitY=1;exitDx=0;exitDy=0;" parent="1" source="nLwUZ7-GpoZsQczw0JLD-139" target="dw3qqJvHqkcLa-oPoZIX-2" edge="1">
          <mxGeometry relative="1" as="geometry">
            <Array as="points">
              <mxPoint x="1164" y="192" />
              <mxPoint x="1164" y="192" />
            </Array>
            <mxPoint x="1141" y="174.5" as="sourcePoint" />
          </mxGeometry>
        </mxCell>
        <mxCell id="bv49dqIHhwxNIkvWS3FY-10" value="" style="edgeStyle=orthogonalEdgeStyle;rounded=0;orthogonalLoop=1;jettySize=auto;html=1;endArrow=none;endFill=0;entryX=0.5;entryY=0;entryDx=0;entryDy=0;" parent="1" source="CA8DIJyEQ-BG8HpjzGWb-37" target="CA8DIJyEQ-BG8HpjzGWb-59" edge="1">
          <mxGeometry relative="1" as="geometry">
            <mxPoint x="1040" y="419" as="sourcePoint" />
            <mxPoint x="1025" y="498" as="targetPoint" />
          </mxGeometry>
        </mxCell>
        <mxCell id="X5VYXHr65bgpFRcitx1M-105" value="Nome" style="text;html=1;align=center;verticalAlign=middle;resizable=0;points=[];autosize=1;strokeColor=none;fillColor=none;" parent="1" vertex="1">
          <mxGeometry x="997.5" y="461" width="60" height="30" as="geometry" />
        </mxCell>
        <mxCell id="bv49dqIHhwxNIkvWS3FY-14" style="edgeStyle=orthogonalEdgeStyle;rounded=0;orthogonalLoop=1;jettySize=auto;html=1;entryX=0.5;entryY=1;entryDx=0;entryDy=0;endArrow=none;endFill=0;" parent="1" source="bv49dqIHhwxNIkvWS3FY-13" target="nLwUZ7-GpoZsQczw0JLD-139" edge="1">
          <mxGeometry relative="1" as="geometry" />
        </mxCell>
        <mxCell id="bv49dqIHhwxNIkvWS3FY-13" value="Residenza" style="rhombus;whiteSpace=wrap;html=1;fillColor=#f8cecc;strokeColor=#b85450;" parent="1" vertex="1">
          <mxGeometry x="970" y="255.5" width="80" height="44" as="geometry" />
        </mxCell>
        <mxCell id="bv49dqIHhwxNIkvWS3FY-15" value="(1,1)" style="text;html=1;align=center;verticalAlign=middle;resizable=0;points=[];autosize=1;strokeColor=none;fillColor=none;" parent="1" vertex="1">
          <mxGeometry x="1001" y="330.25" width="48" height="24" as="geometry" />
        </mxCell>
        <mxCell id="bv49dqIHhwxNIkvWS3FY-17" value="(0,n)" style="text;html=1;align=center;verticalAlign=middle;resizable=0;points=[];autosize=1;strokeColor=none;fillColor=none;" parent="1" vertex="1">
          <mxGeometry x="1042" y="188.5" width="48" height="24" as="geometry" />
        </mxCell>
        <mxCell id="h4UumLnZZLnhPc9n6Zi0-2" value="(1,1)" style="text;html=1;align=center;verticalAlign=middle;resizable=0;points=[];autosize=1;strokeColor=none;fillColor=none;" parent="1" vertex="1">
          <mxGeometry x="500" y="448" width="48" height="24" as="geometry" />
        </mxCell>
        <mxCell id="h4UumLnZZLnhPc9n6Zi0-4" style="edgeStyle=orthogonalEdgeStyle;rounded=0;orthogonalLoop=1;jettySize=auto;html=1;entryX=0;entryY=0.5;entryDx=0;entryDy=0;endArrow=none;endFill=0;" parent="1" source="h4UumLnZZLnhPc9n6Zi0-3" target="nLwUZ7-GpoZsQczw0JLD-139" edge="1">
          <mxGeometry relative="1" as="geometry">
            <mxPoint x="936" y="168" as="targetPoint" />
            <Array as="points">
              <mxPoint x="924" y="300" />
              <mxPoint x="924" y="168" />
            </Array>
          </mxGeometry>
        </mxCell>
        <mxCell id="h4UumLnZZLnhPc9n6Zi0-3" value="Produzione" style="rhombus;whiteSpace=wrap;html=1;fillColor=#fff2cc;strokeColor=#d6b656;" parent="1" vertex="1">
          <mxGeometry x="600" y="272" width="80" height="56" as="geometry" />
        </mxCell>
        <mxCell id="h4UumLnZZLnhPc9n6Zi0-5" value="(0,n)" style="text;html=1;align=center;verticalAlign=middle;resizable=0;points=[];autosize=1;strokeColor=none;fillColor=none;" parent="1" vertex="1">
          <mxGeometry x="980" y="164.5" width="48" height="24" as="geometry" />
        </mxCell>
        <mxCell id="2fYasUAqJMg8RgUxBZTh-4" value="AnnoProduzione" style="text;html=1;align=center;verticalAlign=middle;resizable=0;points=[];autosize=1;strokeColor=none;fillColor=none;" parent="1" vertex="1">
          <mxGeometry x="270" y="510.5" width="120" height="24" as="geometry" />
        </mxCell>
        <mxCell id="a854-WspByhzPtaYvcBd-2" value="MaxRisoluzione" style="text;html=1;align=center;verticalAlign=middle;resizable=0;points=[];autosize=1;strokeColor=none;fillColor=none;" parent="1" vertex="1">
          <mxGeometry x="1406" y="169" width="108" height="24" as="geometry" />
        </mxCell>
        <mxCell id="a854-WspByhzPtaYvcBd-3" value="Risoluzione" style="text;html=1;align=center;verticalAlign=middle;resizable=0;points=[];autosize=1;strokeColor=none;fillColor=none;" parent="1" vertex="1">
          <mxGeometry x="122" y="37" width="84" height="24" as="geometry" />
        </mxCell>
        <mxCell id="a854-WspByhzPtaYvcBd-6" value="Bitrate" style="text;html=1;align=center;verticalAlign=middle;resizable=0;points=[];autosize=1;strokeColor=none;fillColor=none;" parent="1" vertex="1">
          <mxGeometry x="26" y="134" width="60" height="24" as="geometry" />
        </mxCell>
        <mxCell id="a854-WspByhzPtaYvcBd-7" value="(0,1)" style="text;html=1;align=center;verticalAlign=middle;resizable=0;points=[];autosize=1;strokeColor=none;fillColor=none;" parent="1" vertex="1">
          <mxGeometry x="1460" y="205" width="48" height="24" as="geometry" />
        </mxCell>
        <mxCell id="La2jYohBh1R5JBpSJuED-8" style="edgeStyle=orthogonalEdgeStyle;rounded=0;orthogonalLoop=1;jettySize=auto;html=1;endArrow=none;endFill=0;" parent="1" source="La2jYohBh1R5JBpSJuED-1" edge="1">
          <mxGeometry relative="1" as="geometry">
            <mxPoint x="510.0049999999999" y="828" as="targetPoint" />
          </mxGeometry>
        </mxCell>
        <mxCell id="IZDEx2UFOLFgxv_rmKnA-1" style="edgeStyle=orthogonalEdgeStyle;rounded=0;orthogonalLoop=1;jettySize=auto;html=1;exitX=0.25;exitY=1;exitDx=0;exitDy=0;endArrow=oval;endFill=0;" parent="1" source="La2jYohBh1R5JBpSJuED-1" edge="1">
          <mxGeometry relative="1" as="geometry">
            <mxPoint x="480" y="792" as="targetPoint" />
          </mxGeometry>
        </mxCell>
        <mxCell id="La2jYohBh1R5JBpSJuED-1" value="Vincita" style="whiteSpace=wrap;html=1;fillColor=#fff2cc;strokeColor=#d6b656;" parent="1" vertex="1">
          <mxGeometry x="453.88" y="722" width="112.25" height="41" as="geometry" />
        </mxCell>
        <mxCell id="La2jYohBh1R5JBpSJuED-10" style="edgeStyle=orthogonalEdgeStyle;rounded=0;orthogonalLoop=1;jettySize=auto;html=1;endArrow=none;endFill=0;" parent="1" source="La2jYohBh1R5JBpSJuED-9" target="Hz8rqVoHaeQYQRgCHm7I-8" edge="1">
          <mxGeometry relative="1" as="geometry" />
        </mxCell>
        <mxCell id="La2jYohBh1R5JBpSJuED-9" value="Vittoria" style="rhombus;whiteSpace=wrap;html=1;fillColor=#fff2cc;strokeColor=#d6b656;" parent="1" vertex="1">
          <mxGeometry x="470" y="812" width="80" height="49" as="geometry" />
        </mxCell>
        <mxCell id="La2jYohBh1R5JBpSJuED-11" value="(0,n)" style="text;html=1;align=center;verticalAlign=middle;resizable=0;points=[];autosize=1;strokeColor=none;fillColor=none;" parent="1" vertex="1">
          <mxGeometry x="472" y="893" width="48" height="24" as="geometry" />
        </mxCell>
        <mxCell id="La2jYohBh1R5JBpSJuED-12" value="(0,1)" style="text;html=1;align=center;verticalAlign=middle;resizable=0;points=[];autosize=1;strokeColor=none;fillColor=none;" parent="1" vertex="1">
          <mxGeometry x="416" y="745" width="48" height="24" as="geometry" />
        </mxCell>
        <mxCell id="La2jYohBh1R5JBpSJuED-13" value="(0,1)" style="text;html=1;align=center;verticalAlign=middle;resizable=0;points=[];autosize=1;strokeColor=none;fillColor=none;" parent="1" vertex="1">
          <mxGeometry x="560" y="745" width="48" height="24" as="geometry" />
        </mxCell>
        <mxCell id="La2jYohBh1R5JBpSJuED-14" value="(1,1)" style="text;html=1;align=center;verticalAlign=middle;resizable=0;points=[];autosize=1;strokeColor=none;fillColor=none;" parent="1" vertex="1">
          <mxGeometry x="500" y="757" width="48" height="24" as="geometry" />
        </mxCell>
        <mxCell id="La2jYohBh1R5JBpSJuED-15" value="(1,1)" style="text;html=1;align=center;verticalAlign=middle;resizable=0;points=[];autosize=1;strokeColor=none;fillColor=none;" parent="1" vertex="1">
          <mxGeometry x="500" y="697" width="48" height="24" as="geometry" />
        </mxCell>
        <mxCell id="La2jYohBh1R5JBpSJuED-16" value="" style="endArrow=oval;html=1;rounded=0;endFill=1;exitX=0.876;exitY=0.032;exitDx=0;exitDy=0;exitPerimeter=0;" parent="1" source="La2jYohBh1R5JBpSJuED-1" edge="1">
          <mxGeometry width="50" height="50" relative="1" as="geometry">
            <mxPoint x="552" y="720" as="sourcePoint" />
            <mxPoint x="552" y="708" as="targetPoint" />
          </mxGeometry>
        </mxCell>
        <mxCell id="La2jYohBh1R5JBpSJuED-17" value="Codice" style="text;html=1;align=center;verticalAlign=middle;resizable=0;points=[];autosize=1;strokeColor=none;fillColor=none;" parent="1" vertex="1">
          <mxGeometry x="530" y="685" width="60" height="24" as="geometry" />
        </mxCell>
        <mxCell id="HjDPrr2OueLgmiNBQEms-1" value="(0,n)" style="text;html=1;align=center;verticalAlign=middle;resizable=0;points=[];autosize=1;strokeColor=none;fillColor=none;" parent="1" vertex="1">
          <mxGeometry x="290" y="744" width="48" height="24" as="geometry" />
        </mxCell>
        <mxCell id="HjDPrr2OueLgmiNBQEms-3" value="AspectRatio" style="text;html=1;align=center;verticalAlign=middle;resizable=0;points=[];autosize=1;strokeColor=none;fillColor=none;" parent="1" vertex="1">
          <mxGeometry x="1498" y="641" width="96" height="24" as="geometry" />
        </mxCell>
        <mxCell id="IZDEx2UFOLFgxv_rmKnA-2" value="Data" style="text;html=1;align=center;verticalAlign=middle;resizable=0;points=[];autosize=1;strokeColor=none;fillColor=none;" parent="1" vertex="1">
          <mxGeometry x="452.75" y="793" width="48" height="24" as="geometry" />
        </mxCell>
        <mxCell id="ZFVoMWvGWfRJVdaBvY3V-1" value="" style="endArrow=oval;html=1;rounded=0;exitX=1.011;exitY=0.829;exitDx=0;exitDy=0;exitPerimeter=0;endFill=0;" parent="1" source="Hz8rqVoHaeQYQRgCHm7I-1" target="ZFVoMWvGWfRJVdaBvY3V-2" edge="1">
          <mxGeometry width="50" height="50" relative="1" as="geometry">
            <mxPoint x="552" y="554" as="sourcePoint" />
            <mxPoint x="564" y="516" as="targetPoint" />
          </mxGeometry>
        </mxCell>
        <mxCell id="ZFVoMWvGWfRJVdaBvY3V-2" value="&lt;b&gt;&lt;font color=&quot;#ff6666&quot;&gt;MediaRecensioni&lt;/font&gt;&lt;/b&gt;" style="text;html=1;align=center;verticalAlign=middle;resizable=0;points=[];autosize=1;strokeColor=none;fillColor=none;" parent="1" vertex="1">
          <mxGeometry x="558" y="510.5" width="120" height="24" as="geometry" />
        </mxCell>
        <mxCell id="ZFVoMWvGWfRJVdaBvY3V-3" value="" style="endArrow=oval;html=1;rounded=0;exitX=0.997;exitY=0.927;exitDx=0;exitDy=0;exitPerimeter=0;endFill=0;" parent="1" source="Hz8rqVoHaeQYQRgCHm7I-1" edge="1">
          <mxGeometry width="50" height="50" relative="1" as="geometry">
            <mxPoint x="552" y="554" as="sourcePoint" />
            <mxPoint x="564" y="540" as="targetPoint" />
          </mxGeometry>
        </mxCell>
        <mxCell id="ZFVoMWvGWfRJVdaBvY3V-4" value="&lt;b&gt;&lt;font color=&quot;#ff6666&quot;&gt;NumeroRecensioni&lt;/font&gt;&lt;/b&gt;" style="text;html=1;align=center;verticalAlign=middle;resizable=0;points=[];autosize=1;strokeColor=none;fillColor=none;" parent="1" vertex="1">
          <mxGeometry x="558" y="528" width="132" height="24" as="geometry" />
        </mxCell>
        <mxCell id="ZFVoMWvGWfRJVdaBvY3V-5" value="" style="endArrow=oval;html=1;rounded=0;exitX=0.803;exitY=0.946;exitDx=0;exitDy=0;exitPerimeter=0;endFill=0;" parent="1" source="CA8DIJyEQ-BG8HpjzGWb-62" edge="1">
          <mxGeometry width="50" height="50" relative="1" as="geometry">
            <mxPoint x="1128" y="770" as="sourcePoint" />
            <mxPoint x="1058" y="696" as="targetPoint" />
          </mxGeometry>
        </mxCell>
        <mxCell id="ZFVoMWvGWfRJVdaBvY3V-6" value="&lt;b&gt;&lt;font color=&quot;#ff6666&quot;&gt;ConnessioniAttive&lt;/font&gt;&lt;/b&gt;" style="text;html=1;align=center;verticalAlign=middle;resizable=0;points=[];autosize=1;strokeColor=none;fillColor=none;" parent="1" vertex="1">
          <mxGeometry x="879" y="454" width="132" height="24" as="geometry" />
        </mxCell>
        <mxCell id="RpVowWgRJxYasID1N4hJ-1" value="" style="endArrow=oval;html=1;rounded=0;exitX=0.999;exitY=0.795;exitDx=0;exitDy=0;exitPerimeter=0;endFill=0;" parent="1" source="CA8DIJyEQ-BG8HpjzGWb-78" edge="1">
          <mxGeometry width="50" height="50" relative="1" as="geometry">
            <mxPoint x="1008" y="1094" as="sourcePoint" />
            <mxPoint x="1128" y="1104" as="targetPoint" />
          </mxGeometry>
        </mxCell>
        <mxCell id="RpVowWgRJxYasID1N4hJ-2" value="Capacità Massima" style="text;html=1;align=center;verticalAlign=middle;resizable=0;points=[];autosize=1;strokeColor=none;fillColor=none;" parent="1" vertex="1">
          <mxGeometry x="1120" y="1093" width="120" height="24" as="geometry" />
        </mxCell>
        <mxCell id="RpVowWgRJxYasID1N4hJ-3" value="" style="endArrow=oval;html=1;rounded=0;exitX=0.004;exitY=0.786;exitDx=0;exitDy=0;exitPerimeter=0;endFill=0;" parent="1" source="CA8DIJyEQ-BG8HpjzGWb-78" edge="1">
          <mxGeometry width="50" height="50" relative="1" as="geometry">
            <mxPoint x="1008" y="1094" as="sourcePoint" />
            <mxPoint x="936" y="1104" as="targetPoint" />
          </mxGeometry>
        </mxCell>
        <mxCell id="RpVowWgRJxYasID1N4hJ-4" value="&lt;b&gt;&lt;font color=&quot;#ff6666&quot;&gt;Capacità attuale&lt;/font&gt;&lt;/b&gt;" style="text;html=1;align=center;verticalAlign=middle;resizable=0;points=[];autosize=1;strokeColor=none;fillColor=none;" parent="1" vertex="1">
          <mxGeometry x="820" y="1093" width="120" height="24" as="geometry" />
        </mxCell>
        <mxCell id="hc_r2vWEPfMw3bR6fDct-2" value="" style="endArrow=oval;html=1;rounded=0;endFill=1;" parent="1" edge="1">
          <mxGeometry width="50" height="50" relative="1" as="geometry">
            <mxPoint x="1428" y="516" as="sourcePoint" />
            <mxPoint x="1548" y="564" as="targetPoint" />
            <Array as="points">
              <mxPoint x="1428" y="564" />
            </Array>
          </mxGeometry>
        </mxCell>
        <mxCell id="x7cFDk7ry4X77T74QySy-1" value="" style="endArrow=oval;html=1;rounded=0;entryX=0.655;entryY=-0.008;entryDx=0;entryDy=0;entryPerimeter=0;exitX=0.059;exitY=0.969;exitDx=0;exitDy=0;exitPerimeter=0;endFill=0;" parent="1" source="CA8DIJyEQ-BG8HpjzGWb-37" target="ZFVoMWvGWfRJVdaBvY3V-6" edge="1">
          <mxGeometry width="50" height="50" relative="1" as="geometry">
            <mxPoint x="876" y="482" as="sourcePoint" />
            <mxPoint x="926" y="432" as="targetPoint" />
          </mxGeometry>
        </mxCell>
        <mxCell id="Byh5trkES1ono62hp2UJ-2" value="" style="curved=1;endArrow=none;html=1;rounded=0;endFill=0;" parent="1" edge="1">
          <mxGeometry width="50" height="50" relative="1" as="geometry">
            <mxPoint x="480" y="864" as="sourcePoint" />
            <mxPoint x="528" y="864" as="targetPoint" />
            <Array as="points">
              <mxPoint x="504" y="888" />
            </Array>
          </mxGeometry>
        </mxCell>
        <mxCell id="Byh5trkES1ono62hp2UJ-3" value="" style="endArrow=none;html=1;rounded=0;" parent="1" edge="1">
          <mxGeometry width="50" height="50" relative="1" as="geometry">
            <mxPoint x="528" y="864" as="sourcePoint" />
            <mxPoint x="972" y="864" as="targetPoint" />
          </mxGeometry>
        </mxCell>
        <mxCell id="Byh5trkES1ono62hp2UJ-4" value="" style="endArrow=none;html=1;rounded=0;exitX=1;exitY=0.5;exitDx=0;exitDy=0;" parent="1" source="CA8DIJyEQ-BG8HpjzGWb-73" edge="1">
          <mxGeometry width="50" height="50" relative="1" as="geometry">
            <mxPoint x="372" y="962" as="sourcePoint" />
            <mxPoint x="480" y="864" as="targetPoint" />
          </mxGeometry>
        </mxCell>
        <mxCell id="Byh5trkES1ono62hp2UJ-5" value="" style="endArrow=none;html=1;rounded=0;exitX=1;exitY=0.5;exitDx=0;exitDy=0;entryX=0.005;entryY=0.811;entryDx=0;entryDy=0;entryPerimeter=0;" parent="1" source="nLwUZ7-GpoZsQczw0JLD-53" target="nLwUZ7-GpoZsQczw0JLD-55" edge="1">
          <mxGeometry width="50" height="50" relative="1" as="geometry">
            <mxPoint x="732" y="254" as="sourcePoint" />
            <mxPoint x="782" y="204" as="targetPoint" />
          </mxGeometry>
        </mxCell>
      </root>
    </mxGraphModel>
  </diagram>
  <diagram id="bH5iT_4SA3jwevgCtyXb" name="Pagina-2">
    <mxGraphModel dx="1658" dy="828" grid="1" gridSize="10" guides="1" tooltips="1" connect="1" arrows="1" fold="1" page="1" pageScale="1" pageWidth="1654" pageHeight="1169" math="0" shadow="0">
      <root>
        <mxCell id="0" />
        <mxCell id="1" parent="0" />
        <mxCell id="1AiYa2AipBIIoPSRtCLG-1" style="edgeStyle=orthogonalEdgeStyle;rounded=0;orthogonalLoop=1;jettySize=auto;html=1;endArrow=none;endFill=0;" edge="1" parent="1" source="1AiYa2AipBIIoPSRtCLG-4" target="1AiYa2AipBIIoPSRtCLG-6">
          <mxGeometry relative="1" as="geometry">
            <mxPoint x="1140" y="863" as="targetPoint" />
          </mxGeometry>
        </mxCell>
        <mxCell id="1AiYa2AipBIIoPSRtCLG-2" style="edgeStyle=orthogonalEdgeStyle;rounded=0;orthogonalLoop=1;jettySize=auto;html=1;endArrow=oval;endFill=0;exitX=1;exitY=0.75;exitDx=0;exitDy=0;" edge="1" parent="1" source="1AiYa2AipBIIoPSRtCLG-4">
          <mxGeometry relative="1" as="geometry">
            <mxPoint x="1102" y="873" as="targetPoint" />
          </mxGeometry>
        </mxCell>
        <mxCell id="1AiYa2AipBIIoPSRtCLG-3" style="edgeStyle=orthogonalEdgeStyle;rounded=0;orthogonalLoop=1;jettySize=auto;html=1;endArrow=oval;endFill=0;" edge="1" parent="1">
          <mxGeometry relative="1" as="geometry">
            <mxPoint x="1102" y="853" as="targetPoint" />
            <mxPoint x="1078" y="853" as="sourcePoint" />
          </mxGeometry>
        </mxCell>
        <mxCell id="1AiYa2AipBIIoPSRtCLG-4" value="Visualizzazione" style="rounded=0;whiteSpace=wrap;html=1;fillColor=#dae8fc;strokeColor=#6c8ebf;" vertex="1" parent="1">
          <mxGeometry x="972.5" y="843" width="105" height="40" as="geometry" />
        </mxCell>
        <mxCell id="1AiYa2AipBIIoPSRtCLG-5" style="edgeStyle=orthogonalEdgeStyle;rounded=0;orthogonalLoop=1;jettySize=auto;html=1;endArrow=none;endFill=0;" edge="1" parent="1" source="1AiYa2AipBIIoPSRtCLG-6" target="1AiYa2AipBIIoPSRtCLG-11">
          <mxGeometry relative="1" as="geometry">
            <mxPoint x="1025" y="1073" as="targetPoint" />
          </mxGeometry>
        </mxCell>
        <mxCell id="1AiYa2AipBIIoPSRtCLG-6" value="Utilizzo" style="rhombus;whiteSpace=wrap;html=1;fillColor=#dae8fc;strokeColor=#6c8ebf;" vertex="1" parent="1">
          <mxGeometry x="977.5" y="943" width="95" height="60" as="geometry" />
        </mxCell>
        <mxCell id="1AiYa2AipBIIoPSRtCLG-7" style="edgeStyle=orthogonalEdgeStyle;rounded=0;orthogonalLoop=1;jettySize=auto;html=1;endArrow=oval;endFill=0;exitX=1.011;exitY=0.073;exitDx=0;exitDy=0;exitPerimeter=0;" edge="1" parent="1" source="1AiYa2AipBIIoPSRtCLG-11">
          <mxGeometry relative="1" as="geometry">
            <mxPoint x="1126" y="1057" as="targetPoint" />
          </mxGeometry>
        </mxCell>
        <mxCell id="1AiYa2AipBIIoPSRtCLG-8" style="edgeStyle=orthogonalEdgeStyle;rounded=0;orthogonalLoop=1;jettySize=auto;html=1;exitX=0.984;exitY=0.245;exitDx=0;exitDy=0;exitPerimeter=0;endArrow=oval;endFill=1;" edge="1" parent="1" source="1AiYa2AipBIIoPSRtCLG-11">
          <mxGeometry relative="1" as="geometry">
            <mxPoint x="1126" y="1069" as="targetPoint" />
          </mxGeometry>
        </mxCell>
        <mxCell id="1AiYa2AipBIIoPSRtCLG-9" style="edgeStyle=orthogonalEdgeStyle;rounded=0;orthogonalLoop=1;jettySize=auto;html=1;endArrow=oval;endFill=0;" edge="1" parent="1" source="1AiYa2AipBIIoPSRtCLG-11">
          <mxGeometry relative="1" as="geometry">
            <mxPoint x="1126" y="1085" as="targetPoint" />
          </mxGeometry>
        </mxCell>
        <mxCell id="1AiYa2AipBIIoPSRtCLG-10" style="edgeStyle=orthogonalEdgeStyle;rounded=0;orthogonalLoop=1;jettySize=auto;html=1;endArrow=oval;endFill=0;" edge="1" parent="1" source="1AiYa2AipBIIoPSRtCLG-11">
          <mxGeometry relative="1" as="geometry">
            <mxPoint x="922" y="1085" as="targetPoint" />
          </mxGeometry>
        </mxCell>
        <mxCell id="1AiYa2AipBIIoPSRtCLG-11" value="Server" style="rounded=0;whiteSpace=wrap;html=1;fillColor=#dae8fc;strokeColor=#6c8ebf;" vertex="1" parent="1">
          <mxGeometry x="967.5" y="1053" width="122.5" height="64" as="geometry" />
        </mxCell>
        <mxCell id="1AiYa2AipBIIoPSRtCLG-12" style="edgeStyle=orthogonalEdgeStyle;rounded=0;orthogonalLoop=1;jettySize=auto;html=1;exitX=0;exitY=0.25;exitDx=0;exitDy=0;endArrow=oval;endFill=0;" edge="1" parent="1" target="1AiYa2AipBIIoPSRtCLG-24">
          <mxGeometry relative="1" as="geometry">
            <mxPoint x="966" y="1060.125" as="sourcePoint" />
          </mxGeometry>
        </mxCell>
        <mxCell id="1AiYa2AipBIIoPSRtCLG-13" value="(1,1)" style="text;html=1;align=center;verticalAlign=middle;resizable=0;points=[];autosize=1;strokeColor=none;fillColor=none;" vertex="1" parent="1">
          <mxGeometry x="1012.5" y="821" width="50" height="30" as="geometry" />
        </mxCell>
        <mxCell id="1AiYa2AipBIIoPSRtCLG-14" value="(1,1)" style="text;html=1;align=center;verticalAlign=middle;resizable=0;points=[];autosize=1;strokeColor=none;fillColor=none;" vertex="1" parent="1">
          <mxGeometry x="925" y="831" width="50" height="30" as="geometry" />
        </mxCell>
        <mxCell id="1AiYa2AipBIIoPSRtCLG-15" value="(1,1)" style="text;html=1;align=center;verticalAlign=middle;resizable=0;points=[];autosize=1;strokeColor=none;fillColor=none;" vertex="1" parent="1">
          <mxGeometry x="1016" y="884" width="48" height="24" as="geometry" />
        </mxCell>
        <mxCell id="1AiYa2AipBIIoPSRtCLG-16" value="(0,n)" style="text;html=1;align=center;verticalAlign=middle;resizable=0;points=[];autosize=1;strokeColor=none;fillColor=none;" vertex="1" parent="1">
          <mxGeometry x="1017.5" y="1020.5" width="50" height="30" as="geometry" />
        </mxCell>
        <mxCell id="1AiYa2AipBIIoPSRtCLG-17" value="(0,n)" style="text;html=1;align=center;verticalAlign=middle;resizable=0;points=[];autosize=1;strokeColor=none;fillColor=none;" vertex="1" parent="1">
          <mxGeometry x="1020" y="1112" width="50" height="30" as="geometry" />
        </mxCell>
        <mxCell id="1AiYa2AipBIIoPSRtCLG-18" value="Inizio" style="text;html=1;align=center;verticalAlign=middle;resizable=0;points=[];autosize=1;strokeColor=none;fillColor=none;" vertex="1" parent="1">
          <mxGeometry x="1092.5" y="837" width="60" height="24" as="geometry" />
        </mxCell>
        <mxCell id="1AiYa2AipBIIoPSRtCLG-19" value="Fine" style="text;html=1;align=center;verticalAlign=middle;resizable=0;points=[];autosize=1;strokeColor=none;fillColor=none;" vertex="1" parent="1">
          <mxGeometry x="1098.5" y="861" width="48" height="24" as="geometry" />
        </mxCell>
        <mxCell id="1AiYa2AipBIIoPSRtCLG-20" value="" style="edgeStyle=none;orthogonalLoop=1;jettySize=auto;html=1;rounded=0;endArrow=oval;endFill=1;" edge="1" parent="1">
          <mxGeometry width="100" relative="1" as="geometry">
            <mxPoint x="1090" y="865" as="sourcePoint" />
            <mxPoint x="994" y="829" as="targetPoint" />
            <Array as="points">
              <mxPoint x="1090" y="829" />
              <mxPoint x="1042" y="829" />
            </Array>
          </mxGeometry>
        </mxCell>
        <mxCell id="1AiYa2AipBIIoPSRtCLG-21" value="Longitudine" style="text;html=1;align=center;verticalAlign=middle;resizable=0;points=[];autosize=1;strokeColor=none;fillColor=none;" vertex="1" parent="1">
          <mxGeometry x="1111.5" y="1041" width="96" height="24" as="geometry" />
        </mxCell>
        <mxCell id="1AiYa2AipBIIoPSRtCLG-22" value="Identificatore" style="text;html=1;align=center;verticalAlign=middle;resizable=0;points=[];autosize=1;strokeColor=none;fillColor=none;" vertex="1" parent="1">
          <mxGeometry x="1116" y="1058" width="96" height="24" as="geometry" />
        </mxCell>
        <mxCell id="1AiYa2AipBIIoPSRtCLG-23" value="Larghezza di Banda" style="text;html=1;align=center;verticalAlign=middle;resizable=0;points=[];autosize=1;strokeColor=none;fillColor=none;" vertex="1" parent="1">
          <mxGeometry x="1119" y="1073" width="132" height="24" as="geometry" />
        </mxCell>
        <mxCell id="1AiYa2AipBIIoPSRtCLG-24" value="&lt;b&gt;&lt;font color=&quot;#ff6666&quot;&gt;Banda attuale&lt;/font&gt;&lt;/b&gt;" style="text;html=1;align=center;verticalAlign=middle;resizable=0;points=[];autosize=1;strokeColor=none;fillColor=none;" vertex="1" parent="1">
          <mxGeometry x="827.75" y="1048" width="108" height="24" as="geometry" />
        </mxCell>
        <mxCell id="1AiYa2AipBIIoPSRtCLG-25" value="Latitudine" style="text;html=1;align=center;verticalAlign=middle;resizable=0;points=[];autosize=1;strokeColor=none;fillColor=none;" vertex="1" parent="1">
          <mxGeometry x="839.75" y="1073" width="84" height="24" as="geometry" />
        </mxCell>
        <mxCell id="1AiYa2AipBIIoPSRtCLG-26" value="" style="endArrow=oval;html=1;rounded=0;exitX=0.999;exitY=0.795;exitDx=0;exitDy=0;exitPerimeter=0;endFill=0;" edge="1" parent="1" source="1AiYa2AipBIIoPSRtCLG-11">
          <mxGeometry width="50" height="50" relative="1" as="geometry">
            <mxPoint x="1008" y="1094" as="sourcePoint" />
            <mxPoint x="1128" y="1104" as="targetPoint" />
          </mxGeometry>
        </mxCell>
        <mxCell id="1AiYa2AipBIIoPSRtCLG-27" value="Capacità Massima" style="text;html=1;align=center;verticalAlign=middle;resizable=0;points=[];autosize=1;strokeColor=none;fillColor=none;" vertex="1" parent="1">
          <mxGeometry x="1120" y="1093" width="120" height="24" as="geometry" />
        </mxCell>
        <mxCell id="1AiYa2AipBIIoPSRtCLG-28" value="" style="endArrow=oval;html=1;rounded=0;exitX=0.004;exitY=0.786;exitDx=0;exitDy=0;exitPerimeter=0;endFill=0;" edge="1" parent="1" source="1AiYa2AipBIIoPSRtCLG-11">
          <mxGeometry width="50" height="50" relative="1" as="geometry">
            <mxPoint x="1008" y="1094" as="sourcePoint" />
            <mxPoint x="936" y="1104" as="targetPoint" />
          </mxGeometry>
        </mxCell>
        <mxCell id="1AiYa2AipBIIoPSRtCLG-29" value="&lt;b&gt;&lt;font color=&quot;#ff6666&quot;&gt;Capacità attuale&lt;/font&gt;&lt;/b&gt;" style="text;html=1;align=center;verticalAlign=middle;resizable=0;points=[];autosize=1;strokeColor=none;fillColor=none;" vertex="1" parent="1">
          <mxGeometry x="820" y="1093" width="120" height="24" as="geometry" />
        </mxCell>
      </root>
    </mxGraphModel>
  </diagram>
</mxfile>
